<svg xmlns="http://www.w3.org/2000/svg" width="400" height="400"><path d="M177,220L222,223L223,176Z" fill="#78c9c6" stroke="#78c9c6" stroke-width="1.51"/><path d="M223,176L174,173L177,220Z" fill="#82cec2" stroke="#82cec2" stroke-width="1.51"/><path d="M222,223L269,222L223,176Z" fill="#6fc3c9" stroke="#6fc3c9" stroke-width="1.51"/><path d="M269,222L270,179L223,176Z" fill="#70c3c9" stroke="#70c3c9" stroke-width="1.51"/><path d="M223,176L221,129L174,173Z" fill="#88d0c1" stroke="#88d0c1" stroke-width="1.51"/><path d="M273,132L221,129L223,176Z" fill="#84cbc3" stroke="#84cbc3" stroke-width="1.51"/><path d="M131,175L131,221L177,220Z" fill="#8cd1bf" stroke="#8cd1bf" stroke-width="1.51"/><path d="M177,220L220,270L222,223Z" fill="#6fc4c9" stroke="#6fc4c9" stroke-width="1.51"/><path d="M174,269L220,270L177,220Z" fill="#71c3c9" stroke="#71c3c9" stroke-width="1.51"/><path d="M222,223L269,269L269,222Z" fill="#61bbce" stroke="#61bbce" stroke-width="1.51"/><path d="M174,173L131,175L177,220Z" fill="#8cd2bf" stroke="#8cd2bf" stroke-width="1.51"/><path d="M131,130L131,175L174,173Z" fill="#9bd7bb" stroke="#9bd7bb" stroke-width="1.51"/><path d="M221,129L176,129L174,173Z" fill="#92d3bd" stroke="#92d3bd" stroke-width="1.51"/><path d="M131,221L174,269L177,220Z" fill="#80cac4" stroke="#80cac4" stroke-width="1.51"/><path d="M220,270L269,269L222,223Z" fill="#61bcce" stroke="#61bcce" stroke-width="1.51"/><path d="M315,175L273,132L270,179Z" fill="#74c0c6" stroke="#74c0c6" stroke-width="1.51"/><path d="M176,129L131,130L174,173Z" fill="#9bd7ba" stroke="#9bd7ba" stroke-width="1.51"/><path d="M270,179L273,132L223,176Z" fill="#7ac6c6" stroke="#7ac6c6" stroke-width="1.51"/><path d="M315,220L270,179L269,222Z" fill="#62bacb" stroke="#62bacb" stroke-width="1.51"/><path d="M131,221L129,272L174,269Z" fill="#81c9c4" stroke="#81c9c4" stroke-width="1.51"/><path d="M177,320L223,317L220,270Z" fill="#60b5c8" stroke="#60b5c8" stroke-width="1.51"/><path d="M220,270L223,317L269,269Z" fill="#58b5ce" stroke="#58b5ce" stroke-width="1.51"/><path d="M85,223L129,272L131,221Z" fill="#8ecfc2" stroke="#8ecfc2" stroke-width="1.51"/><path d="M85,223L131,221L82,177Z" fill="#99d6c1" stroke="#99d6c1" stroke-width="1.51"/><path d="M269,269L315,220L269,222Z" fill="#58b5ce" stroke="#58b5ce" stroke-width="1.51"/><path d="M176,129L128,85L131,130Z" fill="#a7dcb8" stroke="#a7dcb8" stroke-width="1.51"/><path d="M221,129L179,85L176,129Z" fill="#9ad7bd" stroke="#9ad7bd" stroke-width="1.51"/><path d="M220,78L179,85L221,129Z" fill="#9ad6c1" stroke="#9ad6c1" stroke-width="1.51"/><path d="M315,220L315,175L270,179Z" fill="#66b8c6" stroke="#66b8c6" stroke-width="1.51"/><path d="M82,177L131,221L131,175Z" fill="#99d7bd" stroke="#99d7bd" stroke-width="1.51"/><path d="M177,320L220,270L174,269Z" fill="#69bcc8" stroke="#69bcc8" stroke-width="1.51"/><path d="M131,130L82,177L131,175Z" fill="#a2daba" stroke="#a2daba" stroke-width="1.51"/><path d="M270,83L220,78L221,129Z" fill="#94d1c4" stroke="#94d1c4" stroke-width="1.51"/><path d="M129,272L177,320L174,269Z" fill="#75c0c5" stroke="#75c0c5" stroke-width="1.51"/><path d="M273,132L270,83L221,129Z" fill="#8bccc4" stroke="#8bccc4" stroke-width="1.51"/><path d="M315,175L314,129L273,132Z" fill="#78bdc2" stroke="#78bdc2" stroke-width="1.51"/><path d="M314,129L270,83L273,132Z" fill="#84c5c4" stroke="#84c5c4" stroke-width="1.51"/><path d="M131,130L78,127L82,177Z" fill="#acdeba" stroke="#acdeba" stroke-width="1.51"/><path d="M179,85L128,85L176,129Z" fill="#a6dcbc" stroke="#a6dcbc" stroke-width="1.51"/><path d="M173,36L128,85L179,85Z" fill="#afe0c0" stroke="#afe0c0" stroke-width="1.51"/><path d="M129,272L126,317L177,320Z" fill="#78bcc1" stroke="#78bcc1" stroke-width="1.51"/><path d="M85,223L84,270L129,272Z" fill="#8fcec6" stroke="#8fcec6" stroke-width="1.51"/><path d="M37,268L84,270L85,223Z" fill="#97d1c9" stroke="#97d1c9" stroke-width="1.51"/><path d="M269,269L320,267L315,220Z" fill="#4faecd" stroke="#4faecd" stroke-width="1.51"/><path d="M315,220L362,174L315,175Z" fill="#60afc2" stroke="#60afc2" stroke-width="1.51"/><path d="M315,175L362,174L314,129Z" fill="#6db3bf" stroke="#6db3bf" stroke-width="1.51"/><path d="M315,318L320,267L269,269Z" fill="#44a6cc" stroke="#44a6cc" stroke-width="1.51"/><path d="M84,270L126,317L129,272Z" fill="#84c4c4" stroke="#84c4c4" stroke-width="1.51"/><path d="M221,362L273,321L223,317Z" fill="#4ea7c6" stroke="#4ea7c6" stroke-width="1.51"/><path d="M223,317L273,321L269,269Z" fill="#4eadcd" stroke="#4eadcd" stroke-width="1.51"/><path d="M128,85L78,127L131,130Z" fill="#b1e0b9" stroke="#b1e0b9" stroke-width="1.51"/><path d="M37,268L81,316L84,270Z" fill="#91c9ca" stroke="#91c9ca" stroke-width="1.51"/><path d="M365,226L362,174L315,220Z" fill="#58a9c1" stroke="#58a9c1" stroke-width="1.51"/><path d="M314,129L319,82L270,83Z" fill="#86c2c4" stroke="#86c2c4" stroke-width="1.51"/><path d="M177,320L221,362L223,317Z" fill="#59acc4" stroke="#59acc4" stroke-width="1.51"/><path d="M173,361L221,362L177,320Z" fill="#5eabbf" stroke="#5eabbf" stroke-width="1.51"/><path d="M126,317L173,361L177,320Z" fill="#6db3bf" stroke="#6db3bf" stroke-width="1.51"/><path d="M320,267L365,226L315,220Z" fill="#4ea8c6" stroke="#4ea8c6" stroke-width="1.51"/><path d="M273,321L315,318L269,269Z" fill="#44a6cd" stroke="#44a6cd" stroke-width="1.51"/><path d="M319,366L315,318L273,321Z" fill="#3898c5" stroke="#3898c5" stroke-width="1.51"/><path d="M220,78L173,36L179,85Z" fill="#a7dbc3" stroke="#a7dbc3" stroke-width="1.51"/><path d="M128,85L82,84L78,127Z" fill="#b9e3bc" stroke="#b9e3bc" stroke-width="1.51"/><path d="M227,32L173,36L220,78Z" fill="#a6dbc7" stroke="#a6dbc7" stroke-width="1.51"/><path d="M130,36L82,84L128,85Z" fill="#bce5be" stroke="#bce5be" stroke-width="1.51"/><path d="M270,83L227,32L220,78Z" fill="#9cd4c8" stroke="#9cd4c8" stroke-width="1.51"/><path d="M368,130L319,82L314,129Z" fill="#7cb7bd" stroke="#7cb7bd" stroke-width="1.51"/><path d="M364,268L365,226L320,267Z" fill="#45a0c6" stroke="#45a0c6" stroke-width="1.51"/><path d="M126,317L132,365L173,361Z" fill="#71b0bb" stroke="#71b0bb" stroke-width="1.51"/><path d="M84,270L81,316L126,317Z" fill="#86c2c4" stroke="#86c2c4" stroke-width="1.51"/><path d="M31,224L85,223L82,177Z" fill="#a2d9c5" stroke="#a2d9c5" stroke-width="1.51"/><path d="M78,127L34,173L82,177Z" fill="#b0e0c0" stroke="#b0e0c0" stroke-width="1.51"/><path d="M33,131L34,173L78,127Z" fill="#b8e3c0" stroke="#b8e3c0" stroke-width="1.51"/><path d="M272,35L227,32L270,83Z" fill="#9ad2cc" stroke="#9ad2cc" stroke-width="1.51"/><path d="M34,173L31,224L82,177Z" fill="#aaddc5" stroke="#aaddc5" stroke-width="1.51"/><path d="M366,317L364,268L320,267Z" fill="#399ac6" stroke="#399ac6" stroke-width="1.51"/><path d="M173,36L130,36L128,85Z" fill="#b7e3bf" stroke="#b7e3bf" stroke-width="1.51"/><path d="M81,30L130,36L126,-12Z" fill="#c4e8c5" stroke="#c4e8c5" stroke-width="1.51"/><path d="M31,224L37,268L85,223Z" fill="#9ed5ca" stroke="#9ed5ca" stroke-width="1.51"/><path d="M316,36L272,35L270,83Z" fill="#95cbcc" stroke="#95cbcc" stroke-width="1.51"/><path d="M221,362L270,364L273,321Z" fill="#45a0c6" stroke="#45a0c6" stroke-width="1.51"/><path d="M315,318L366,317L320,267Z" fill="#3999c5" stroke="#3999c5" stroke-width="1.51"/><path d="M223,411L270,364L221,362Z" fill="#499bc1" stroke="#499bc1" stroke-width="1.51"/><path d="M173,361L179,411L221,362Z" fill="#5aa2bc" stroke="#5aa2bc" stroke-width="1.51"/><path d="M82,369L132,365L126,317Z" fill="#7ab3bc" stroke="#7ab3bc" stroke-width="1.51"/><path d="M362,174L368,130L314,129Z" fill="#70b0bb" stroke="#70b0bb" stroke-width="1.51"/><path d="M319,82L316,36L270,83Z" fill="#8fc5c7" stroke="#8fc5c7" stroke-width="1.51"/><path d="M415,177L368,130L362,174Z" fill="#67a4b9" stroke="#67a4b9" stroke-width="1.51"/><path d="M410,223L362,174L365,226Z" fill="#54a0be" stroke="#54a0be" stroke-width="1.51"/><path d="M-17,176L-16,226L31,224Z" fill="#adddcf" stroke="#adddcf" stroke-width="1.51"/><path d="M35,78L33,131L78,127Z" fill="#c0e6c0" stroke="#c0e6c0" stroke-width="1.51"/><path d="M35,78L78,127L82,84Z" fill="#c1e7bf" stroke="#c1e7bf" stroke-width="1.51"/><path d="M363,80L316,36L319,82Z" fill="#89bcc3" stroke="#89bcc3" stroke-width="1.51"/><path d="M270,-10L222,-9L227,32Z" fill="#a5d7d2" stroke="#a5d7d2" stroke-width="1.51"/><path d="M368,130L363,80L319,82Z" fill="#7eb4bd" stroke="#7eb4bd" stroke-width="1.51"/><path d="M319,366L366,317L315,318Z" fill="#3090c0" stroke="#3090c0" stroke-width="1.51"/><path d="M364,268L410,223L365,226Z" fill="#489bc0" stroke="#489bc0" stroke-width="1.51"/><path d="M81,316L82,369L126,317Z" fill="#81b9bf" stroke="#81b9bf" stroke-width="1.51"/><path d="M37,268L34,316L81,316Z" fill="#92c7c9" stroke="#92c7c9" stroke-width="1.51"/><path d="M-12,271L34,316L37,268Z" fill="#99ccd1" stroke="#99ccd1" stroke-width="1.51"/><path d="M273,411L319,366L270,364Z" fill="#3591c1" stroke="#3591c1" stroke-width="1.51"/><path d="M270,364L319,366L273,321Z" fill="#3999c5" stroke="#3999c5" stroke-width="1.51"/><path d="M38,38L35,78L82,84Z" fill="#cbebc5" stroke="#cbebc5" stroke-width="1.51"/><path d="M126,-12L130,36L173,36Z" fill="#bce5c4" stroke="#bce5c4" stroke-width="1.51"/><path d="M130,36L81,30L82,84Z" fill="#c3e8c2" stroke="#c3e8c2" stroke-width="1.51"/><path d="M32,367L82,369L81,316Z" fill="#87b7c1" stroke="#87b7c1" stroke-width="1.51"/><path d="M132,365L179,411L173,361Z" fill="#67a6b9" stroke="#67a6b9" stroke-width="1.51"/><path d="M227,32L222,-9L173,36Z" fill="#aadccc" stroke="#aadccc" stroke-width="1.51"/><path d="M270,-10L227,32L272,35Z" fill="#9fd3d1" stroke="#9fd3d1" stroke-width="1.51"/><path d="M411,274L410,223L364,268Z" fill="#3f94c0" stroke="#3f94c0" stroke-width="1.51"/><path d="M368,130L413,83L363,80Z" fill="#7bacb9" stroke="#7bacb9" stroke-width="1.51"/><path d="M128,414L179,411L132,365Z" fill="#6aa3b6" stroke="#6aa3b6" stroke-width="1.51"/><path d="M179,411L223,411L221,362Z" fill="#529cbc" stroke="#529cbc" stroke-width="1.51"/><path d="M410,223L415,177L362,174Z" fill="#589eba" stroke="#589eba" stroke-width="1.51"/><path d="M222,-9L177,-15L173,36Z" fill="#b0e0cc" stroke="#b0e0cc" stroke-width="1.51"/><path d="M31,224L-12,271L37,268Z" fill="#a0d4d1" stroke="#a0d4d1" stroke-width="1.51"/><path d="M-17,176L31,224L34,173Z" fill="#aedfca" stroke="#aedfca" stroke-width="1.51"/><path d="M-17,176L34,173L-10,131Z" fill="#bae4c9" stroke="#bae4c9" stroke-width="1.51"/><path d="M-10,131L34,173L33,131Z" fill="#bbe4c4" stroke="#bbe4c4" stroke-width="1.51"/><path d="M226,-63L172,-58L177,-15Z" fill="#b8e3d3" stroke="#b8e3d3" stroke-width="1.51"/><path d="M318,-11L270,-10L272,35Z" fill="#9bcdd3" stroke="#9bcdd3" stroke-width="1.51"/><path d="M318,-11L272,35L316,36Z" fill="#96c8ce" stroke="#96c8ce" stroke-width="1.51"/><path d="M-14,82L-10,131L33,131Z" fill="#c6e9c7" stroke="#c6e9c7" stroke-width="1.51"/><path d="M410,223L456,220L415,177Z" fill="#5093b5" stroke="#5093b5" stroke-width="1.51"/><path d="M366,317L411,274L364,268Z" fill="#3591c1" stroke="#3591c1" stroke-width="1.51"/><path d="M411,318L411,274L366,317Z" fill="#2e88bd" stroke="#2e88bd" stroke-width="1.51"/><path d="M223,411L273,411L270,364Z" fill="#3f94c0" stroke="#3f94c0" stroke-width="1.51"/><path d="M177,-15L126,-12L173,36Z" fill="#bae4c8" stroke="#bae4c8" stroke-width="1.51"/><path d="M-16,226L-12,271L31,224Z" fill="#a5d7d2" stroke="#a5d7d2" stroke-width="1.51"/><path d="M34,316L32,367L81,316Z" fill="#8dbdc5" stroke="#8dbdc5" stroke-width="1.51"/><path d="M415,177L415,125L368,130Z" fill="#6ba2b5" stroke="#6ba2b5" stroke-width="1.51"/><path d="M363,80L368,31L316,36Z" fill="#8bb8c3" stroke="#8bb8c3" stroke-width="1.51"/><path d="M179,411L176,457L223,411Z" fill="#5595b4" stroke="#5595b4" stroke-width="1.51"/><path d="M273,455L317,414L273,411Z" fill="#3084b8" stroke="#3084b8" stroke-width="1.51"/><path d="M82,369L128,414L132,365Z" fill="#77aab7" stroke="#77aab7" stroke-width="1.51"/><path d="M35,78L-14,82L33,131Z" fill="#c8eac6" stroke="#c8eac6" stroke-width="1.51"/><path d="M81,30L38,38L82,84Z" fill="#cbebc5" stroke="#cbebc5" stroke-width="1.51"/><path d="M38,-11L38,38L81,30Z" fill="#d3eecc" stroke="#d3eecc" stroke-width="1.51"/><path d="M319,366L361,368L366,317Z" fill="#2988bc" stroke="#2988bc" stroke-width="1.51"/><path d="M317,414L361,368L319,366Z" fill="#2884bb" stroke="#2884bb" stroke-width="1.51"/><path d="M413,83L368,31L363,80Z" fill="#84afbd" stroke="#84afbd" stroke-width="1.51"/><path d="M82,369L83,410L128,414Z" fill="#79a7b7" stroke="#79a7b7" stroke-width="1.51"/><path d="M-11,367L32,367L34,316Z" fill="#8ebac7" stroke="#8ebac7" stroke-width="1.51"/><path d="M362,-9L318,-11L316,36Z" fill="#93c0cc" stroke="#93c0cc" stroke-width="1.51"/><path d="M226,-63L177,-15L222,-9Z" fill="#b1dfd3" stroke="#b1dfd3" stroke-width="1.51"/><path d="M-59,273L-11,314L-12,271Z" fill="#a0cfd7" stroke="#a0cfd7" stroke-width="1.51"/><path d="M-12,271L-11,314L34,316Z" fill="#98c9d1" stroke="#98c9d1" stroke-width="1.51"/><path d="M411,363L411,318L366,317Z" fill="#2580b9" stroke="#2580b9" stroke-width="1.51"/><path d="M458,274L456,220L410,223Z" fill="#4389b3" stroke="#4389b3" stroke-width="1.51"/><path d="M415,125L413,83L368,130Z" fill="#75a5b6" stroke="#75a5b6" stroke-width="1.51"/><path d="M37,410L83,410L82,369Z" fill="#81aabb" stroke="#81aabb" stroke-width="1.51"/><path d="M361,368L411,363L366,317Z" fill="#2380b8" stroke="#2380b8" stroke-width="1.51"/><path d="M273,411L317,414L319,366Z" fill="#2e88bd" stroke="#2e88bd" stroke-width="1.51"/><path d="M226,458L273,411L223,411Z" fill="#438eb8" stroke="#438eb8" stroke-width="1.51"/><path d="M-14,35L-14,82L35,78Z" fill="#d3eecc" stroke="#d3eecc" stroke-width="1.51"/><path d="M-64,175L-57,227L-17,176Z" fill="#b8e3d3" stroke="#b8e3d3" stroke-width="1.51"/><path d="M38,38L-14,35L35,78Z" fill="#d3eecc" stroke="#d3eecc" stroke-width="1.51"/><path d="M126,-12L78,-16L81,30Z" fill="#cbebca" stroke="#cbebca" stroke-width="1.51"/><path d="M84,-63L78,-16L126,-12Z" fill="#d0edce" stroke="#d0edce" stroke-width="1.51"/><path d="M458,274L410,223L411,274Z" fill="#3c8bba" stroke="#3c8bba" stroke-width="1.51"/><path d="M415,177L458,132L415,125Z" fill="#6899ae" stroke="#6899ae" stroke-width="1.51"/><path d="M415,125L461,80L413,83Z" fill="#769eb0" stroke="#769eb0" stroke-width="1.51"/><path d="M177,-15L172,-58L126,-12Z" fill="#bfe6cd" stroke="#bfe6cd" stroke-width="1.51"/><path d="M226,-63L222,-9L267,-60Z" fill="#acdad8" stroke="#acdad8" stroke-width="1.51"/><path d="M128,414L176,457L179,411Z" fill="#6298b1" stroke="#6298b1" stroke-width="1.51"/><path d="M125,456L176,457L128,414Z" fill="#6796aa" stroke="#6796aa" stroke-width="1.51"/><path d="M-16,226L-57,227L-12,271Z" fill="#aad9d7" stroke="#aad9d7" stroke-width="1.51"/><path d="M-17,176L-57,227L-16,226Z" fill="#b1dfd3" stroke="#b1dfd3" stroke-width="1.51"/><path d="M-64,175L-17,176L-63,131Z" fill="#c1e7d0" stroke="#c1e7d0" stroke-width="1.51"/><path d="M176,457L226,458L223,411Z" fill="#4e8eb0" stroke="#4e8eb0" stroke-width="1.51"/><path d="M456,220L462,177L415,177Z" fill="#5490ae" stroke="#5490ae" stroke-width="1.51"/><path d="M267,-60L222,-9L270,-10Z" fill="#a6d7d7" stroke="#a6d7d7" stroke-width="1.51"/><path d="M368,31L362,-9L316,36Z" fill="#8ebac7" stroke="#8ebac7" stroke-width="1.51"/><path d="M415,-12L362,-9L368,31Z" fill="#8db2c6" stroke="#8db2c6" stroke-width="1.51"/><path d="M267,-60L270,-10L319,-57Z" fill="#a3d0da" stroke="#a3d0da" stroke-width="1.51"/><path d="M462,177L458,132L415,177Z" fill="#6092ab" stroke="#6092ab" stroke-width="1.51"/><path d="M413,83L416,31L368,31Z" fill="#85abbd" stroke="#85abbd" stroke-width="1.51"/><path d="M35,-60L38,-11L78,-16Z" fill="#daf1d3" stroke="#daf1d3" stroke-width="1.51"/><path d="M78,-16L38,-11L81,30Z" fill="#d2eecd" stroke="#d2eecd" stroke-width="1.51"/><path d="M226,458L273,455L273,411Z" fill="#3b86b5" stroke="#3b86b5" stroke-width="1.51"/><path d="M-63,131L-17,176L-10,131Z" fill="#c2e7cc" stroke="#c2e7cc" stroke-width="1.51"/><path d="M411,318L458,274L411,274Z" fill="#2f84b8" stroke="#2f84b8" stroke-width="1.51"/><path d="M368,411L411,363L361,368Z" fill="#1d78b4" stroke="#1d78b4" stroke-width="1.51"/><path d="M368,411L361,368L317,414Z" fill="#207bb6" stroke="#207bb6" stroke-width="1.51"/><path d="M83,410L125,456L128,414Z" fill="#729daf" stroke="#729daf" stroke-width="1.51"/><path d="M32,367L37,410L82,369Z" fill="#86afbf" stroke="#86afbf" stroke-width="1.51"/><path d="M-12,410L37,410L32,367Z" fill="#89adc2" stroke="#89adc2" stroke-width="1.51"/><path d="M-11,367L34,316L-11,314Z" fill="#93c0cc" stroke="#93c0cc" stroke-width="1.51"/><path d="M319,-57L270,-10L318,-11Z" fill="#9dcad5" stroke="#9dcad5" stroke-width="1.51"/><path d="M456,220L458,274L462,177Z" fill="#4787ad" stroke="#4787ad" stroke-width="1.51"/><path d="M459,320L458,274L411,318Z" fill="#2b7bb1" stroke="#2b7bb1" stroke-width="1.51"/><path d="M176,457L83,462L226,458Z" fill="#5f8ea7" stroke="#5f8ea7" stroke-width="1.51"/><path d="M83,462L125,456L83,410Z" fill="#749aac" stroke="#749aac" stroke-width="1.51"/><path d="M172,-58L130,-61L126,-12Z" fill="#c5e9ce" stroke="#c5e9ce" stroke-width="1.51"/><path d="M226,-63L130,-61L172,-58Z" fill="#bfe6d4" stroke="#bfe6d4" stroke-width="1.51"/><path d="M363,458L368,411L317,414Z" fill="#1d73af" stroke="#1d73af" stroke-width="1.51"/><path d="M-57,227L-59,273L-12,271Z" fill="#a9d7da" stroke="#a9d7da" stroke-width="1.51"/><path d="M-64,175L-59,273L-57,227Z" fill="#b2ded9" stroke="#b2ded9" stroke-width="1.51"/><path d="M-14,82L-63,131L-10,131Z" fill="#caebcc" stroke="#caebcc" stroke-width="1.51"/><path d="M38,-11L-14,35L38,38Z" fill="#d7efd1" stroke="#d7efd1" stroke-width="1.51"/><path d="M-60,316L-11,367L-11,314Z" fill="#98c2d1" stroke="#98c2d1" stroke-width="1.51"/><path d="M-57,78L-63,131L-14,82Z" fill="#d1edd0" stroke="#d1edd0" stroke-width="1.51"/><path d="M461,80L416,31L413,83Z" fill="#7ea1b4" stroke="#7ea1b4" stroke-width="1.51"/><path d="M364,-63L319,-57L362,-9Z" fill="#98bed1" stroke="#98bed1" stroke-width="1.51"/><path d="M362,-9L319,-57L318,-11Z" fill="#97c2d1" stroke="#97c2d1" stroke-width="1.51"/><path d="M267,-60L364,-63L226,-63Z" fill="#a6d1dd" stroke="#a6d1dd" stroke-width="1.51"/><path d="M273,455L317,456L317,414Z" fill="#2b7bb2" stroke="#2b7bb2" stroke-width="1.51"/><path d="M226,458L317,456L273,455Z" fill="#337fb2" stroke="#337fb2" stroke-width="1.51"/><path d="M458,274L459,320L462,177Z" fill="#3a81af" stroke="#3a81af" stroke-width="1.51"/><path d="M411,363L459,320L411,318Z" fill="#2178b1" stroke="#2178b1" stroke-width="1.51"/><path d="M462,368L459,320L411,363Z" fill="#1c6faa" stroke="#1c6faa" stroke-width="1.51"/><path d="M-14,35L-57,78L-14,82Z" fill="#d7f0d1" stroke="#d7f0d1" stroke-width="1.51"/><path d="M458,132L461,80L415,125Z" fill="#7098aa" stroke="#7098aa" stroke-width="1.51"/><path d="M462,177L461,80L458,132Z" fill="#6a91a3" stroke="#6a91a3" stroke-width="1.51"/><path d="M-59,273L-60,316L-11,314Z" fill="#a0ccd7" stroke="#a0ccd7" stroke-width="1.51"/><path d="M-64,365L-60,316L-59,273Z" fill="#a0c8d7" stroke="#a0c8d7" stroke-width="1.51"/><path d="M130,-61L84,-63L126,-12Z" fill="#ceeccf" stroke="#ceeccf" stroke-width="1.51"/><path d="M38,-11L-10,-14L-14,35Z" fill="#dcf1d6" stroke="#dcf1d6" stroke-width="1.51"/><path d="M226,-63L84,-63L130,-61Z" fill="#c7e9d1" stroke="#c7e9d1" stroke-width="1.51"/><path d="M125,456L83,462L176,457Z" fill="#6b92a4" stroke="#6b92a4" stroke-width="1.51"/><path d="M226,458L363,458L317,456Z" fill="#2b77ad" stroke="#2b77ad" stroke-width="1.51"/><path d="M37,410L83,462L83,410Z" fill="#7ea1b4" stroke="#7ea1b4" stroke-width="1.51"/><path d="M34,460L83,462L37,410Z" fill="#7f9db1" stroke="#7f9db1" stroke-width="1.51"/><path d="M368,411L412,410L411,363Z" fill="#1570b0" stroke="#1570b0" stroke-width="1.51"/><path d="M411,459L412,410L368,411Z" fill="#0f68a9" stroke="#0f68a9" stroke-width="1.51"/><path d="M-11,367L-12,410L32,367Z" fill="#8db2c6" stroke="#8db2c6" stroke-width="1.51"/><path d="M-62,412L-12,410L-11,367Z" fill="#8fb0c9" stroke="#8fb0c9" stroke-width="1.51"/><path d="M-14,35L-62,33L-57,78Z" fill="#ddf2d6" stroke="#ddf2d6" stroke-width="1.51"/><path d="M35,-60L-10,-14L38,-11Z" fill="#def2d8" stroke="#def2d8" stroke-width="1.51"/><path d="M416,31L415,-12L368,31Z" fill="#89acc2" stroke="#89acc2" stroke-width="1.51"/><path d="M458,-10L415,-12L416,31Z" fill="#87a4bc" stroke="#87a4bc" stroke-width="1.51"/><path d="M411,459L363,458L226,458Z" fill="#216fa8" stroke="#216fa8" stroke-width="1.51"/><path d="M317,456L363,458L317,414Z" fill="#2273ad" stroke="#2273ad" stroke-width="1.51"/><path d="M461,80L458,30L416,31Z" fill="#7f9db1" stroke="#7f9db1" stroke-width="1.51"/><path d="M84,-63L35,-60L78,-16Z" fill="#daf1d4" stroke="#daf1d4" stroke-width="1.51"/><path d="M410,-58L362,-9L415,-12Z" fill="#8fb0c8" stroke="#8fb0c8" stroke-width="1.51"/><path d="M410,-58L364,-63L362,-9Z" fill="#94b6cd" stroke="#94b6cd" stroke-width="1.51"/><path d="M319,-57L364,-63L267,-60Z" fill="#9fc8d7" stroke="#9fc8d7" stroke-width="1.51"/><path d="M-12,410L34,460L37,410Z" fill="#85a4bb" stroke="#85a4bb" stroke-width="1.51"/><path d="M462,410L462,368L412,410Z" fill="#1062a4" stroke="#1062a4" stroke-width="1.51"/><path d="M412,410L462,368L411,363Z" fill="#156bab" stroke="#156bab" stroke-width="1.51"/><path d="M459,320L462,368L462,177Z" fill="#2e79ae" stroke="#2e79ae" stroke-width="1.51"/><path d="M-62,-15L-14,35L-10,-14Z" fill="#e1f3db" stroke="#e1f3db" stroke-width="1.51"/><path d="M-62,-15L-62,33L-14,35Z" fill="#e1f4db" stroke="#e1f4db" stroke-width="1.51"/><path d="M-57,78L-62,33L-63,131Z" fill="#d9f0d4" stroke="#d9f0d4" stroke-width="1.51"/><path d="M-63,131L-62,33L-64,175Z" fill="#d0edd1" stroke="#d0edd1" stroke-width="1.51"/><path d="M-12,410L-11,462L34,460Z" fill="#859fb8" stroke="#859fb8" stroke-width="1.51"/><path d="M-60,316L-64,365L-11,367Z" fill="#98bed1" stroke="#98bed1" stroke-width="1.51"/><path d="M-64,175L-64,365L-59,273Z" fill="#a8d6df" stroke="#a8d6df" stroke-width="1.51"/><path d="M458,30L458,-10L416,31Z" fill="#849fb6" stroke="#849fb6" stroke-width="1.51"/><path d="M461,80L458,-10L458,30Z" fill="#8099b0" stroke="#8099b0" stroke-width="1.51"/><path d="M459,-61L410,-58L415,-12Z" fill="#8ea7c4" stroke="#8ea7c4" stroke-width="1.51"/><path d="M35,-60L-12,-58L-10,-14Z" fill="#e3f4dd" stroke="#e3f4dd" stroke-width="1.51"/><path d="M-59,-60L-12,-58L35,-60Z" fill="#e8f6e2" stroke="#e8f6e2" stroke-width="1.51"/><path d="M363,458L411,459L368,411Z" fill="#1567a6" stroke="#1567a6" stroke-width="1.51"/><path d="M83,462L411,459L226,458Z" fill="#4183ae" stroke="#4183ae" stroke-width="1.51"/><path d="M459,456L462,410L412,410Z" fill="#0a5b9e" stroke="#0a5b9e" stroke-width="1.51"/><path d="M-63,457L-11,462L-12,410Z" fill="#8aa2bd" stroke="#8aa2bd" stroke-width="1.51"/><path d="M34,460L-11,462L83,462Z" fill="#7f98ae" stroke="#7f98ae" stroke-width="1.51"/><path d="M-64,365L-62,412L-11,367Z" fill="#94b5cd" stroke="#94b5cd" stroke-width="1.51"/><path d="M-12,-58L-62,-15L-10,-14Z" fill="#e5f5e0" stroke="#e5f5e0" stroke-width="1.51"/><path d="M-62,33L-62,-15L-64,175Z" fill="#ddf2d7" stroke="#ddf2d7" stroke-width="1.51"/><path d="M411,459L459,456L412,410Z" fill="#0a5b9e" stroke="#0a5b9e" stroke-width="1.51"/><path d="M458,-10L459,-61L415,-12Z" fill="#8aa1bd" stroke="#8aa1bd" stroke-width="1.51"/><path d="M410,-58L459,-61L364,-63Z" fill="#93aecb" stroke="#93aecb" stroke-width="1.51"/><path d="M461,80L459,-61L458,-10Z" fill="#839ab3" stroke="#839ab3" stroke-width="1.51"/><path d="M-12,-58L-59,-60L-62,-15Z" fill="#eaf7e4" stroke="#eaf7e4" stroke-width="1.51"/><path d="M84,-63L-59,-60L35,-60Z" fill="#e4f4dd" stroke="#e4f4dd" stroke-width="1.51"/><path d="M-64,365L-63,457L-62,412Z" fill="#93aecc" stroke="#93aecc" stroke-width="1.51"/><path d="M-62,412L-63,457L-12,410Z" fill="#8fa8c5" stroke="#8fa8c5" stroke-width="1.51"/></svg>