<svg xmlns="http://www.w3.org/2000/svg" width="400" height="400"><path d="M214,215L183,183L183,216Z" fill="#7cccc4" stroke="#7cccc4" stroke-width="1.51"/><path d="M214,215L216,184L183,183Z" fill="#7cccc4" stroke="#7cccc4" stroke-width="1.51"/><path d="M183,183L153,183L183,216Z" fill="#88d0c1" stroke="#88d0c1" stroke-width="1.51"/><path d="M216,184L184,153L183,183Z" fill="#88d0c1" stroke="#88d0c1" stroke-width="1.51"/><path d="M183,183L152,154L153,183Z" fill="#94d4bd" stroke="#94d4bd" stroke-width="1.51"/><path d="M153,183L152,216L183,216Z" fill="#88d0c0" stroke="#88d0c0" stroke-width="1.51"/><path d="M214,215L246,214L216,184Z" fill="#72c6c8" stroke="#72c6c8" stroke-width="1.51"/><path d="M247,245L246,214L214,215Z" fill="#68c0cc" stroke="#68c0cc" stroke-width="1.51"/><path d="M216,184L215,152L184,153Z" fill="#88d0c0" stroke="#88d0c0" stroke-width="1.51"/><path d="M247,154L215,152L216,184Z" fill="#83ccc3" stroke="#83ccc3" stroke-width="1.51"/><path d="M183,216L214,248L214,215Z" fill="#72c6c8" stroke="#72c6c8" stroke-width="1.51"/><path d="M154,247L184,248L183,216Z" fill="#7bc8c6" stroke="#7bc8c6" stroke-width="1.51"/><path d="M246,214L246,183L216,184Z" fill="#73c6c8" stroke="#73c6c8" stroke-width="1.51"/><path d="M184,248L214,248L183,216Z" fill="#72c5c8" stroke="#72c5c8" stroke-width="1.51"/><path d="M184,153L152,154L183,183Z" fill="#94d4bd" stroke="#94d4bd" stroke-width="1.51"/><path d="M153,183L121,183L152,216Z" fill="#93d5bd" stroke="#93d5bd" stroke-width="1.51"/><path d="M154,122L152,154L184,153Z" fill="#9ed8b9" stroke="#9ed8b9" stroke-width="1.51"/><path d="M152,216L154,247L183,216Z" fill="#83cbc3" stroke="#83cbc3" stroke-width="1.51"/><path d="M246,183L247,154L216,184Z" fill="#7bc8c6" stroke="#7bc8c6" stroke-width="1.51"/><path d="M278,184L247,154L246,183Z" fill="#75c4c8" stroke="#75c4c8" stroke-width="1.51"/><path d="M214,248L247,245L214,215Z" fill="#68c0cc" stroke="#68c0cc" stroke-width="1.51"/><path d="M246,214L278,184L246,183Z" fill="#6cc1cb" stroke="#6cc1cb" stroke-width="1.51"/><path d="M152,154L121,183L153,183Z" fill="#9bd7ba" stroke="#9bd7ba" stroke-width="1.51"/><path d="M152,216L120,246L154,247Z" fill="#88ccc2" stroke="#88ccc2" stroke-width="1.51"/><path d="M215,152L184,122L184,153Z" fill="#93d5bd" stroke="#93d5bd" stroke-width="1.51"/><path d="M152,154L122,154L121,183Z" fill="#a1dab9" stroke="#a1dab9" stroke-width="1.51"/><path d="M216,120L184,122L215,152Z" fill="#93d4be" stroke="#93d4be" stroke-width="1.51"/><path d="M214,248L216,277L247,245Z" fill="#60bbce" stroke="#60bbce" stroke-width="1.51"/><path d="M185,278L216,277L214,248Z" fill="#65bdcb" stroke="#65bdcb" stroke-width="1.51"/><path d="M185,278L214,248L184,248Z" fill="#6cc1cb" stroke="#6cc1cb" stroke-width="1.51"/><path d="M153,278L185,278L184,248Z" fill="#72c1c8" stroke="#72c1c8" stroke-width="1.51"/><path d="M121,183L120,216L152,216Z" fill="#94d4be" stroke="#94d4be" stroke-width="1.51"/><path d="M154,247L153,278L184,248Z" fill="#79c5c7" stroke="#79c5c7" stroke-width="1.51"/><path d="M278,216L278,184L246,214Z" fill="#65bdcb" stroke="#65bdcb" stroke-width="1.51"/><path d="M246,120L216,120L215,152Z" fill="#8fd0c1" stroke="#8fd0c1" stroke-width="1.51"/><path d="M246,120L215,152L247,154Z" fill="#88cdc2" stroke="#88cdc2" stroke-width="1.51"/><path d="M247,245L278,216L246,214Z" fill="#60bbce" stroke="#60bbce" stroke-width="1.51"/><path d="M279,247L278,216L247,245Z" fill="#58b7cf" stroke="#58b7cf" stroke-width="1.51"/><path d="M154,122L122,154L152,154Z" fill="#a5dbb6" stroke="#a5dbb6" stroke-width="1.51"/><path d="M184,122L154,122L184,153Z" fill="#9dd8ba" stroke="#9dd8ba" stroke-width="1.51"/><path d="M185,91L154,122L184,122Z" fill="#a4dbbd" stroke="#a4dbbd" stroke-width="1.51"/><path d="M121,278L153,278L154,247Z" fill="#80c6c4" stroke="#80c6c4" stroke-width="1.51"/><path d="M120,216L120,246L152,216Z" fill="#8fd0c1" stroke="#8fd0c1" stroke-width="1.51"/><path d="M278,151L246,120L247,154Z" fill="#82c8c4" stroke="#82c8c4" stroke-width="1.51"/><path d="M216,277L247,279L247,245Z" fill="#59b6d0" stroke="#59b6d0" stroke-width="1.51"/><path d="M215,309L247,279L216,277Z" fill="#58b2ca" stroke="#58b2ca" stroke-width="1.51"/><path d="M215,309L216,277L185,278Z" fill="#60b6c8" stroke="#60b6c8" stroke-width="1.51"/><path d="M278,184L278,151L247,154Z" fill="#77c3c6" stroke="#77c3c6" stroke-width="1.51"/><path d="M247,279L279,247L247,245Z" fill="#53b5d2" stroke="#53b5d2" stroke-width="1.51"/><path d="M310,214L310,185L278,184Z" fill="#63b5c5" stroke="#63b5c5" stroke-width="1.51"/><path d="M309,122L279,121L278,151Z" fill="#7fc0c1" stroke="#7fc0c1" stroke-width="1.51"/><path d="M121,183L91,184L120,216Z" fill="#9dd8c0" stroke="#9dd8c0" stroke-width="1.51"/><path d="M120,216L90,247L120,246Z" fill="#92d0c5" stroke="#92d0c5" stroke-width="1.51"/><path d="M91,153L91,184L121,183Z" fill="#a7dcbe" stroke="#a7dcbe" stroke-width="1.51"/><path d="M91,153L121,183L122,154Z" fill="#a7dcbc" stroke="#a7dcbc" stroke-width="1.51"/><path d="M215,89L185,91L216,120Z" fill="#9dd7c2" stroke="#9dd7c2" stroke-width="1.51"/><path d="M216,120L185,91L184,122Z" fill="#9dd8c0" stroke="#9dd8c0" stroke-width="1.51"/><path d="M154,122L121,120L122,154Z" fill="#abdeb6" stroke="#abdeb6" stroke-width="1.51"/><path d="M153,278L183,308L185,278Z" fill="#6ebbc5" stroke="#6ebbc5" stroke-width="1.51"/><path d="M151,310L183,308L153,278Z" fill="#71b8c2" stroke="#71b8c2" stroke-width="1.51"/><path d="M120,246L121,278L154,247Z" fill="#86c9c5" stroke="#86c9c5" stroke-width="1.51"/><path d="M90,247L121,278L120,246Z" fill="#8dccc8" stroke="#8dccc8" stroke-width="1.51"/><path d="M91,184L89,215L120,216Z" fill="#9dd7c2" stroke="#9dd7c2" stroke-width="1.51"/><path d="M151,91L121,120L154,122Z" fill="#aee0b9" stroke="#aee0b9" stroke-width="1.51"/><path d="M183,308L215,309L185,278Z" fill="#63b5c5" stroke="#63b5c5" stroke-width="1.51"/><path d="M246,89L215,89L216,120Z" fill="#98d3c5" stroke="#98d3c5" stroke-width="1.51"/><path d="M246,89L216,120L246,120Z" fill="#93d0c5" stroke="#93d0c5" stroke-width="1.51"/><path d="M248,309L278,279L247,279Z" fill="#4aabce" stroke="#4aabce" stroke-width="1.51"/><path d="M247,279L278,279L279,247Z" fill="#4bafd1" stroke="#4bafd1" stroke-width="1.51"/><path d="M278,151L279,121L246,120Z" fill="#84c7c5" stroke="#84c7c5" stroke-width="1.51"/><path d="M310,153L278,151L278,184Z" fill="#73bcc3" stroke="#73bcc3" stroke-width="1.51"/><path d="M310,214L278,184L278,216Z" fill="#60b6c8" stroke="#60b6c8" stroke-width="1.51"/><path d="M310,214L278,216L309,245Z" fill="#56afc9" stroke="#56afc9" stroke-width="1.51"/><path d="M309,245L278,216L279,247Z" fill="#54b0cc" stroke="#54b0cc" stroke-width="1.51"/><path d="M121,120L91,153L122,154Z" fill="#aee0b9" stroke="#aee0b9" stroke-width="1.51"/><path d="M91,184L58,184L89,215Z" fill="#a6dcc4" stroke="#a6dcc4" stroke-width="1.51"/><path d="M89,215L90,247L120,216Z" fill="#98d3c5" stroke="#98d3c5" stroke-width="1.51"/><path d="M152,59L151,91L185,91Z" fill="#b1e0c0" stroke="#b1e0c0" stroke-width="1.51"/><path d="M185,91L151,91L154,122Z" fill="#aaddbd" stroke="#aaddbd" stroke-width="1.51"/><path d="M310,278L309,245L279,247Z" fill="#48a8cd" stroke="#48a8cd" stroke-width="1.51"/><path d="M121,308L151,310L153,278Z" fill="#7abbbf" stroke="#7abbbf" stroke-width="1.51"/><path d="M183,308L183,341L215,309Z" fill="#5faec2" stroke="#5faec2" stroke-width="1.51"/><path d="M121,308L153,278L121,278Z" fill="#7fc0c1" stroke="#7fc0c1" stroke-width="1.51"/><path d="M215,309L248,309L247,279Z" fill="#52acca" stroke="#52acca" stroke-width="1.51"/><path d="M216,341L248,309L215,309Z" fill="#51a8c5" stroke="#51a8c5" stroke-width="1.51"/><path d="M278,91L246,89L246,120Z" fill="#91cdc9" stroke="#91cdc9" stroke-width="1.51"/><path d="M310,185L310,153L278,184Z" fill="#6cb7c3" stroke="#6cb7c3" stroke-width="1.51"/><path d="M91,308L121,308L121,278Z" fill="#84bfc2" stroke="#84bfc2" stroke-width="1.51"/><path d="M151,91L122,90L121,120Z" fill="#b4e2ba" stroke="#b4e2ba" stroke-width="1.51"/><path d="M121,120L89,122L91,153Z" fill="#b4e2ba" stroke="#b4e2ba" stroke-width="1.51"/><path d="M152,59L122,90L151,91Z" fill="#b7e3bd" stroke="#b7e3bd" stroke-width="1.51"/><path d="M59,154L58,184L91,184Z" fill="#afe0c3" stroke="#afe0c3" stroke-width="1.51"/><path d="M89,90L89,122L121,120Z" fill="#bbe4bd" stroke="#bbe4bd" stroke-width="1.51"/><path d="M90,247L90,279L121,278Z" fill="#8dcac8" stroke="#8dcac8" stroke-width="1.51"/><path d="M58,248L90,279L90,247Z" fill="#96cfcc" stroke="#96cfcc" stroke-width="1.51"/><path d="M279,121L278,91L246,120Z" fill="#8ac9c7" stroke="#8ac9c7" stroke-width="1.51"/><path d="M310,90L278,91L279,121Z" fill="#89c3c5" stroke="#89c3c5" stroke-width="1.51"/><path d="M310,153L309,122L278,151Z" fill="#7abbbf" stroke="#7abbbf" stroke-width="1.51"/><path d="M278,279L310,278L279,247Z" fill="#46a9ce" stroke="#46a9ce" stroke-width="1.51"/><path d="M248,309L279,308L278,279Z" fill="#43a5cc" stroke="#43a5cc" stroke-width="1.51"/><path d="M309,308L310,278L278,279Z" fill="#3e9fc9" stroke="#3e9fc9" stroke-width="1.51"/><path d="M342,215L342,184L310,214Z" fill="#58a9c1" stroke="#58a9c1" stroke-width="1.51"/><path d="M59,154L91,184L91,153Z" fill="#b0e0c0" stroke="#b0e0c0" stroke-width="1.51"/><path d="M89,215L58,215L90,247Z" fill="#9ed6c7" stroke="#9ed6c7" stroke-width="1.51"/><path d="M58,184L58,215L89,215Z" fill="#a6dbc6" stroke="#a6dbc6" stroke-width="1.51"/><path d="M215,89L184,58L185,91Z" fill="#a6dbc4" stroke="#a6dbc4" stroke-width="1.51"/><path d="M215,58L184,58L215,89Z" fill="#a6dbc6" stroke="#a6dbc6" stroke-width="1.51"/><path d="M215,58L215,89L246,89Z" fill="#9fd6c7" stroke="#9fd6c7" stroke-width="1.51"/><path d="M153,340L183,308L151,310Z" fill="#6db2be" stroke="#6db2be" stroke-width="1.51"/><path d="M153,340L183,341L183,308Z" fill="#67aebe" stroke="#67aebe" stroke-width="1.51"/><path d="M248,309L279,342L279,308Z" fill="#3e9fc8" stroke="#3e9fc8" stroke-width="1.51"/><path d="M246,58L215,58L246,89Z" fill="#9ed5ca" stroke="#9ed5ca" stroke-width="1.51"/><path d="M183,341L216,341L215,309Z" fill="#58a9c1" stroke="#58a9c1" stroke-width="1.51"/><path d="M310,185L342,184L310,153Z" fill="#68b0c0" stroke="#68b0c0" stroke-width="1.51"/><path d="M310,153L339,151L309,122Z" fill="#76b5bc" stroke="#76b5bc" stroke-width="1.51"/><path d="M310,214L342,184L310,185Z" fill="#5eaec2" stroke="#5eaec2" stroke-width="1.51"/><path d="M342,215L310,214L309,245Z" fill="#52a8c5" stroke="#52a8c5" stroke-width="1.51"/><path d="M341,247L342,215L309,245Z" fill="#4ba3c5" stroke="#4ba3c5" stroke-width="1.51"/><path d="M89,122L59,154L91,153Z" fill="#b7e3bd" stroke="#b7e3bd" stroke-width="1.51"/><path d="M122,340L151,310L121,308Z" fill="#79b6bc" stroke="#79b6bc" stroke-width="1.51"/><path d="M122,340L153,340L151,310Z" fill="#74b1ba" stroke="#74b1ba" stroke-width="1.51"/><path d="M184,58L152,59L185,91Z" fill="#afe0c3" stroke="#afe0c3" stroke-width="1.51"/><path d="M122,90L89,90L121,120Z" fill="#bbe4bd" stroke="#bbe4bd" stroke-width="1.51"/><path d="M58,215L58,248L90,247Z" fill="#9ed4ca" stroke="#9ed4ca" stroke-width="1.51"/><path d="M342,184L339,151L310,153Z" fill="#6baebd" stroke="#6baebd" stroke-width="1.51"/><path d="M309,122L310,90L279,121Z" fill="#84bfc2" stroke="#84bfc2" stroke-width="1.51"/><path d="M277,59L246,58L246,89Z" fill="#99d1cd" stroke="#99d1cd" stroke-width="1.51"/><path d="M277,59L246,89L278,91Z" fill="#94cccc" stroke="#94cccc" stroke-width="1.51"/><path d="M216,341L247,342L248,309Z" fill="#4aa3c5" stroke="#4aa3c5" stroke-width="1.51"/><path d="M279,308L309,308L278,279Z" fill="#3fa0c9" stroke="#3fa0c9" stroke-width="1.51"/><path d="M216,371L247,342L216,341Z" fill="#4d9ec1" stroke="#4d9ec1" stroke-width="1.51"/><path d="M310,278L341,247L309,245Z" fill="#43a2c9" stroke="#43a2c9" stroke-width="1.51"/><path d="M339,279L341,247L310,278Z" fill="#3c9cc7" stroke="#3c9cc7" stroke-width="1.51"/><path d="M58,309L91,308L90,279Z" fill="#8dc2c6" stroke="#8dc2c6" stroke-width="1.51"/><path d="M90,279L91,308L121,278Z" fill="#89c3c5" stroke="#89c3c5" stroke-width="1.51"/><path d="M90,59L89,90L122,90Z" fill="#c3e8c1" stroke="#c3e8c1" stroke-width="1.51"/><path d="M89,122L59,121L59,154Z" fill="#bde5be" stroke="#bde5be" stroke-width="1.51"/><path d="M308,340L309,308L279,308Z" fill="#3696c3" stroke="#3696c3" stroke-width="1.51"/><path d="M341,121L310,90L309,122Z" fill="#80b8bf" stroke="#80b8bf" stroke-width="1.51"/><path d="M89,90L59,121L89,122Z" fill="#c0e7c0" stroke="#c0e7c0" stroke-width="1.51"/><path d="M26,185L28,215L58,184Z" fill="#aedfcb" stroke="#aedfcb" stroke-width="1.51"/><path d="M91,308L122,340L121,308Z" fill="#80b8bf" stroke="#80b8bf" stroke-width="1.51"/><path d="M185,373L216,371L183,341Z" fill="#59a1bc" stroke="#59a1bc" stroke-width="1.51"/><path d="M58,248L57,277L90,279Z" fill="#96cdcd" stroke="#96cdcd" stroke-width="1.51"/><path d="M91,308L90,340L122,340Z" fill="#82b6bf" stroke="#82b6bf" stroke-width="1.51"/><path d="M27,247L57,277L58,248Z" fill="#9cd1d1" stroke="#9cd1d1" stroke-width="1.51"/><path d="M27,247L58,248L58,215Z" fill="#a2d5ce" stroke="#a2d5ce" stroke-width="1.51"/><path d="M152,27L121,58L152,59Z" fill="#bde5c2" stroke="#bde5c2" stroke-width="1.51"/><path d="M152,59L121,58L122,90Z" fill="#bde5be" stroke="#bde5be" stroke-width="1.51"/><path d="M310,90L277,59L278,91Z" fill="#90c6c8" stroke="#90c6c8" stroke-width="1.51"/><path d="M309,308L339,279L310,278Z" fill="#3899c5" stroke="#3899c5" stroke-width="1.51"/><path d="M371,122L341,121L339,151Z" fill="#75acb8" stroke="#75acb8" stroke-width="1.51"/><path d="M339,151L341,121L309,122Z" fill="#78b3bb" stroke="#78b3bb" stroke-width="1.51"/><path d="M247,342L279,342L248,309Z" fill="#409fc7" stroke="#409fc7" stroke-width="1.51"/><path d="M309,308L342,310L339,279Z" fill="#3392c2" stroke="#3392c2" stroke-width="1.51"/><path d="M58,184L28,215L58,215Z" fill="#a9dcca" stroke="#a9dcca" stroke-width="1.51"/><path d="M26,185L58,184L26,153Z" fill="#b4e2c8" stroke="#b4e2c8" stroke-width="1.51"/><path d="M215,58L214,28L184,58Z" fill="#a9dcca" stroke="#a9dcca" stroke-width="1.51"/><path d="M184,58L152,27L152,59Z" fill="#b6e2c4" stroke="#b6e2c4" stroke-width="1.51"/><path d="M246,58L214,28L215,58Z" fill="#a4d8cc" stroke="#a4d8cc" stroke-width="1.51"/><path d="M247,27L214,28L246,58Z" fill="#a3d7d0" stroke="#a3d7d0" stroke-width="1.51"/><path d="M183,341L216,371L216,341Z" fill="#55a3be" stroke="#55a3be" stroke-width="1.51"/><path d="M247,342L279,371L279,342Z" fill="#3996c4" stroke="#3996c4" stroke-width="1.51"/><path d="M185,373L183,341L153,373Z" fill="#62a4b9" stroke="#62a4b9" stroke-width="1.51"/><path d="M26,153L58,184L59,154Z" fill="#b6e2c4" stroke="#b6e2c4" stroke-width="1.51"/><path d="M214,28L184,27L184,58Z" fill="#aedfcb" stroke="#aedfcb" stroke-width="1.51"/><path d="M153,373L183,341L153,340Z" fill="#69a8ba" stroke="#69a8ba" stroke-width="1.51"/><path d="M342,184L373,154L339,151Z" fill="#69a8ba" stroke="#69a8ba" stroke-width="1.51"/><path d="M373,214L372,183L342,184Z" fill="#59a1bc" stroke="#59a1bc" stroke-width="1.51"/><path d="M373,214L342,184L342,215Z" fill="#55a2be" stroke="#55a2be" stroke-width="1.51"/><path d="M373,214L342,215L372,246Z" fill="#4c9cbf" stroke="#4c9cbf" stroke-width="1.51"/><path d="M372,246L342,215L341,247Z" fill="#489dc2" stroke="#489dc2" stroke-width="1.51"/><path d="M121,58L90,59L122,90Z" fill="#c3e8c1" stroke="#c3e8c1" stroke-width="1.51"/><path d="M89,90L58,89L59,121Z" fill="#c6e9c2" stroke="#c6e9c2" stroke-width="1.51"/><path d="M59,121L26,153L59,154Z" fill="#bde5c2" stroke="#bde5c2" stroke-width="1.51"/><path d="M120,27L90,59L121,58Z" fill="#c6e9c5" stroke="#c6e9c5" stroke-width="1.51"/><path d="M121,371L153,373L153,340Z" fill="#71a8b6" stroke="#71a8b6" stroke-width="1.51"/><path d="M58,309L90,340L91,308Z" fill="#89bcc3" stroke="#89bcc3" stroke-width="1.51"/><path d="M28,215L27,247L58,215Z" fill="#a6d9ce" stroke="#a6d9ce" stroke-width="1.51"/><path d="M57,277L58,309L90,279Z" fill="#92c7c9" stroke="#92c7c9" stroke-width="1.51"/><path d="M-5,245L27,247L28,215Z" fill="#a6d8d3" stroke="#a6d8d3" stroke-width="1.51"/><path d="M27,308L58,309L57,277Z" fill="#94c5cc" stroke="#94c5cc" stroke-width="1.51"/><path d="M28,120L26,153L59,121Z" fill="#c2e7c4" stroke="#c2e7c4" stroke-width="1.51"/><path d="M90,59L58,89L89,90Z" fill="#c9eac4" stroke="#c9eac4" stroke-width="1.51"/><path d="M371,279L372,246L341,247Z" fill="#3c95c3" stroke="#3c95c3" stroke-width="1.51"/><path d="M279,342L308,340L279,308Z" fill="#3696c4" stroke="#3696c4" stroke-width="1.51"/><path d="M279,371L308,340L279,342Z" fill="#3390c1" stroke="#3390c1" stroke-width="1.51"/><path d="M184,27L152,27L184,58Z" fill="#b5e2c8" stroke="#b5e2c8" stroke-width="1.51"/><path d="M121,371L153,340L122,340Z" fill="#75acb8" stroke="#75acb8" stroke-width="1.51"/><path d="M341,121L340,90L310,90Z" fill="#81b6bf" stroke="#81b6bf" stroke-width="1.51"/><path d="M310,90L310,59L277,59Z" fill="#90c3c8" stroke="#90c3c8" stroke-width="1.51"/><path d="M371,89L340,90L341,121Z" fill="#7fafbc" stroke="#7fafbc" stroke-width="1.51"/><path d="M277,59L247,27L246,58Z" fill="#9cd1d0" stroke="#9cd1d0" stroke-width="1.51"/><path d="M214,28L183,-4L184,27Z" fill="#b1e0ce" stroke="#b1e0ce" stroke-width="1.51"/><path d="M278,28L247,27L277,59Z" fill="#9bcfd2" stroke="#9bcfd2" stroke-width="1.51"/><path d="M216,371L247,372L247,342Z" fill="#4799c1" stroke="#4799c1" stroke-width="1.51"/><path d="M215,403L247,372L216,371Z" fill="#4995bc" stroke="#4995bc" stroke-width="1.51"/><path d="M340,90L310,59L310,90Z" fill="#89bbc3" stroke="#89bbc3" stroke-width="1.51"/><path d="M371,279L341,247L339,279Z" fill="#3996c4" stroke="#3996c4" stroke-width="1.51"/><path d="M372,183L373,154L342,184Z" fill="#62a4b9" stroke="#62a4b9" stroke-width="1.51"/><path d="M404,185L373,154L372,183Z" fill="#609db7" stroke="#609db7" stroke-width="1.51"/><path d="M308,340L342,310L309,308Z" fill="#2f90c0" stroke="#2f90c0" stroke-width="1.51"/><path d="M28,91L28,120L59,121Z" fill="#c8eac7" stroke="#c8eac7" stroke-width="1.51"/><path d="M-5,278L27,277L27,247Z" fill="#9fd0d5" stroke="#9fd0d5" stroke-width="1.51"/><path d="M27,247L27,277L57,277Z" fill="#9bcfd3" stroke="#9bcfd3" stroke-width="1.51"/><path d="M90,340L121,371L122,340Z" fill="#7cafbb" stroke="#7cafbb" stroke-width="1.51"/><path d="M89,371L121,371L90,340Z" fill="#7eacba" stroke="#7eacba" stroke-width="1.51"/><path d="M310,59L278,28L277,59Z" fill="#95c8cd" stroke="#95c8cd" stroke-width="1.51"/><path d="M90,59L59,58L58,89Z" fill="#ceecc7" stroke="#ceecc7" stroke-width="1.51"/><path d="M152,27L120,27L121,58Z" fill="#c2e7c4" stroke="#c2e7c4" stroke-width="1.51"/><path d="M373,154L371,122L339,151Z" fill="#71a8b6" stroke="#71a8b6" stroke-width="1.51"/><path d="M340,90L341,59L310,59Z" fill="#8ab9c3" stroke="#8ab9c3" stroke-width="1.51"/><path d="M247,372L279,371L247,342Z" fill="#3c95c3" stroke="#3c95c3" stroke-width="1.51"/><path d="M308,340L341,341L342,310Z" fill="#2989bd" stroke="#2989bd" stroke-width="1.51"/><path d="M372,246L402,214L373,214Z" fill="#4a95bc" stroke="#4a95bc" stroke-width="1.51"/><path d="M342,310L371,279L339,279Z" fill="#338fc1" stroke="#338fc1" stroke-width="1.51"/><path d="M91,26L59,58L90,59Z" fill="#cfecc9" stroke="#cfecc9" stroke-width="1.51"/><path d="M58,89L28,91L59,121Z" fill="#c9eac6" stroke="#c9eac6" stroke-width="1.51"/><path d="M28,339L58,341L58,309Z" fill="#8dbac6" stroke="#8dbac6" stroke-width="1.51"/><path d="M58,309L58,341L90,340Z" fill="#8ab9c3" stroke="#8ab9c3" stroke-width="1.51"/><path d="M310,59L310,28L278,28Z" fill="#95c5cd" stroke="#95c5cd" stroke-width="1.51"/><path d="M371,89L341,59L340,90Z" fill="#85b2bf" stroke="#85b2bf" stroke-width="1.51"/><path d="M342,310L373,309L371,279Z" fill="#2d89be" stroke="#2d89be" stroke-width="1.51"/><path d="M339,371L341,341L308,340Z" fill="#2683ba" stroke="#2683ba" stroke-width="1.51"/><path d="M27,57L28,91L58,89Z" fill="#d1edcb" stroke="#d1edcb" stroke-width="1.51"/><path d="M-4,152L-4,185L26,153Z" fill="#bde5cc" stroke="#bde5cc" stroke-width="1.51"/><path d="M26,185L-4,185L28,215Z" fill="#b1e0ce" stroke="#b1e0ce" stroke-width="1.51"/><path d="M26,153L-4,185L26,185Z" fill="#b8e3cc" stroke="#b8e3cc" stroke-width="1.51"/><path d="M-4,152L26,153L28,120Z" fill="#c2e7c7" stroke="#c2e7c7" stroke-width="1.51"/><path d="M27,277L27,308L57,277Z" fill="#97c9cf" stroke="#97c9cf" stroke-width="1.51"/><path d="M-5,278L27,308L27,277Z" fill="#9bcad3" stroke="#9bcad3" stroke-width="1.51"/><path d="M58,341L89,371L90,340Z" fill="#85b2bf" stroke="#85b2bf" stroke-width="1.51"/><path d="M184,404L185,373L153,402Z" fill="#5f9ab4" stroke="#5f9ab4" stroke-width="1.51"/><path d="M183,-4L152,27L184,27Z" fill="#b8e3cb" stroke="#b8e3cb" stroke-width="1.51"/><path d="M121,-4L120,27L152,27Z" fill="#c5e8c8" stroke="#c5e8c8" stroke-width="1.51"/><path d="M121,-4L91,26L120,27Z" fill="#cbebca" stroke="#cbebca" stroke-width="1.51"/><path d="M120,27L91,26L90,59Z" fill="#cbebc8" stroke="#cbebc8" stroke-width="1.51"/><path d="M216,-6L183,-4L214,28Z" fill="#b0dfd1" stroke="#b0dfd1" stroke-width="1.51"/><path d="M216,-6L214,28L247,27Z" fill="#a9dad2" stroke="#a9dad2" stroke-width="1.51"/><path d="M185,373L215,403L216,371Z" fill="#5299ba" stroke="#5299ba" stroke-width="1.51"/><path d="M247,372L277,405L279,371Z" fill="#348dc0" stroke="#348dc0" stroke-width="1.51"/><path d="M279,371L310,373L308,340Z" fill="#2e89be" stroke="#2e89be" stroke-width="1.51"/><path d="M184,404L215,403L185,373Z" fill="#5597b6" stroke="#5597b6" stroke-width="1.51"/><path d="M185,373L153,373L153,402Z" fill="#659fb6" stroke="#659fb6" stroke-width="1.51"/><path d="M373,214L404,185L372,183Z" fill="#579bb9" stroke="#579bb9" stroke-width="1.51"/><path d="M373,154L403,121L371,122Z" fill="#71a2b3" stroke="#71a2b3" stroke-width="1.51"/><path d="M404,247L402,214L372,246Z" fill="#4390bb" stroke="#4390bb" stroke-width="1.51"/><path d="M-4,185L-6,215L28,215Z" fill="#b0dfd1" stroke="#b0dfd1" stroke-width="1.51"/><path d="M246,-5L216,-6L247,27Z" fill="#a8d8d5" stroke="#a8d8d5" stroke-width="1.51"/><path d="M341,59L310,28L310,59Z" fill="#8fbdc8" stroke="#8fbdc8" stroke-width="1.51"/><path d="M153,402L153,373L121,371Z" fill="#6ea1b3" stroke="#6ea1b3" stroke-width="1.51"/><path d="M403,121L371,89L371,122Z" fill="#78a5b6" stroke="#78a5b6" stroke-width="1.51"/><path d="M371,122L371,89L341,121Z" fill="#7aabb9" stroke="#7aabb9" stroke-width="1.51"/><path d="M246,-5L247,27L277,-5Z" fill="#a3d4d8" stroke="#a3d4d8" stroke-width="1.51"/><path d="M372,341L373,309L342,310Z" fill="#2683ba" stroke="#2683ba" stroke-width="1.51"/><path d="M402,277L404,247L372,246Z" fill="#388cbe" stroke="#388cbe" stroke-width="1.51"/><path d="M310,402L310,373L279,371Z" fill="#2a83bb" stroke="#2a83bb" stroke-width="1.51"/><path d="M341,341L372,341L342,310Z" fill="#2583ba" stroke="#2583ba" stroke-width="1.51"/><path d="M402,214L404,185L373,214Z" fill="#5096b8" stroke="#5096b8" stroke-width="1.51"/><path d="M120,404L153,402L121,371Z" fill="#709fb1" stroke="#709fb1" stroke-width="1.51"/><path d="M-4,185L-35,184L-6,215Z" fill="#b7e2d3" stroke="#b7e2d3" stroke-width="1.51"/><path d="M-5,120L-4,152L28,120Z" fill="#c7e9ca" stroke="#c7e9ca" stroke-width="1.51"/><path d="M-6,215L-5,245L28,215Z" fill="#abdbd4" stroke="#abdbd4" stroke-width="1.51"/><path d="M183,-4L154,-5L152,27Z" fill="#bde5cc" stroke="#bde5cc" stroke-width="1.51"/><path d="M183,-35L154,-5L183,-4Z" fill="#bee5d1" stroke="#bee5d1" stroke-width="1.51"/><path d="M277,-5L247,27L278,28Z" fill="#9ed0d5" stroke="#9ed0d5" stroke-width="1.51"/><path d="M214,433L248,404L215,403Z" fill="#478bb3" stroke="#478bb3" stroke-width="1.51"/><path d="M215,403L248,404L247,372Z" fill="#4390bb" stroke="#4390bb" stroke-width="1.51"/><path d="M404,185L404,153L373,154Z" fill="#639bb3" stroke="#639bb3" stroke-width="1.51"/><path d="M402,277L372,246L371,279Z" fill="#358dc0" stroke="#358dc0" stroke-width="1.51"/><path d="M435,216L433,182L404,185Z" fill="#538dac" stroke="#538dac" stroke-width="1.51"/><path d="M154,-5L121,-4L152,27Z" fill="#c4e8c9" stroke="#c4e8c9" stroke-width="1.51"/><path d="M27,308L28,339L58,309Z" fill="#91bfca" stroke="#91bfca" stroke-width="1.51"/><path d="M-5,245L-5,278L27,247Z" fill="#a3d4d8" stroke="#a3d4d8" stroke-width="1.51"/><path d="M-37,247L-5,278L-5,245Z" fill="#a7d6db" stroke="#a7d6db" stroke-width="1.51"/><path d="M28,91L-5,120L28,120Z" fill="#cbebca" stroke="#cbebca" stroke-width="1.51"/><path d="M-4,152L-35,184L-4,185Z" fill="#bee5d1" stroke="#bee5d1" stroke-width="1.51"/><path d="M-5,90L-5,120L28,91Z" fill="#d0edcd" stroke="#d0edcd" stroke-width="1.51"/><path d="M27,57L58,89L59,58Z" fill="#d1edca" stroke="#d1edca" stroke-width="1.51"/><path d="M27,57L59,58L57,26Z" fill="#d5eece" stroke="#d5eece" stroke-width="1.51"/><path d="M373,309L402,277L371,279Z" fill="#2e86bc" stroke="#2e86bc" stroke-width="1.51"/><path d="M60,372L89,371L58,341Z" fill="#86afbf" stroke="#86afbf" stroke-width="1.51"/><path d="M89,404L120,404L89,371Z" fill="#7aa2b5" stroke="#7aa2b5" stroke-width="1.51"/><path d="M89,371L120,404L121,371Z" fill="#78a4b6" stroke="#78a4b6" stroke-width="1.51"/><path d="M184,434L214,433L184,404Z" fill="#538dac" stroke="#538dac" stroke-width="1.51"/><path d="M311,-4L277,-5L278,28Z" fill="#9ccbd4" stroke="#9ccbd4" stroke-width="1.51"/><path d="M216,-37L183,-35L216,-6Z" fill="#b6e1d6" stroke="#b6e1d6" stroke-width="1.51"/><path d="M404,153L403,121L373,154Z" fill="#6d9eb0" stroke="#6d9eb0" stroke-width="1.51"/><path d="M-5,309L28,339L27,308Z" fill="#94c0cd" stroke="#94c0cd" stroke-width="1.51"/><path d="M248,404L277,405L247,372Z" fill="#388bbd" stroke="#388bbd" stroke-width="1.51"/><path d="M248,434L277,405L248,404Z" fill="#3785b6" stroke="#3785b6" stroke-width="1.51"/><path d="M214,433L215,403L184,404Z" fill="#4f8fb0" stroke="#4f8fb0" stroke-width="1.51"/><path d="M28,371L60,372L58,341Z" fill="#89b0c2" stroke="#89b0c2" stroke-width="1.51"/><path d="M373,309L404,310L402,277Z" fill="#2880b8" stroke="#2880b8" stroke-width="1.51"/><path d="M310,373L339,371L308,340Z" fill="#2783ba" stroke="#2783ba" stroke-width="1.51"/><path d="M310,402L339,371L310,373Z" fill="#227db7" stroke="#227db7" stroke-width="1.51"/><path d="M57,26L59,58L91,26Z" fill="#d3eecc" stroke="#d3eecc" stroke-width="1.51"/><path d="M89,-4L57,26L91,26Z" fill="#d4eecf" stroke="#d4eecf" stroke-width="1.51"/><path d="M372,57L342,28L341,59Z" fill="#8bb3c4" stroke="#8bb3c4" stroke-width="1.51"/><path d="M341,59L342,28L310,28Z" fill="#8fbbc8" stroke="#8fbbc8" stroke-width="1.51"/><path d="M310,28L311,-4L278,28Z" fill="#98c6d1" stroke="#98c6d1" stroke-width="1.51"/><path d="M372,57L341,59L371,89Z" fill="#86afbf" stroke="#86afbf" stroke-width="1.51"/><path d="M373,372L372,341L341,341Z" fill="#1e7ab6" stroke="#1e7ab6" stroke-width="1.51"/><path d="M403,59L372,57L371,89Z" fill="#84a9bc" stroke="#84a9bc" stroke-width="1.51"/><path d="M-3,58L-5,90L28,91Z" fill="#d6efd0" stroke="#d6efd0" stroke-width="1.51"/><path d="M-36,152L-35,184L-4,152Z" fill="#c3e7d1" stroke="#c3e7d1" stroke-width="1.51"/><path d="M-3,58L28,91L27,57Z" fill="#d6efd0" stroke="#d6efd0" stroke-width="1.51"/><path d="M28,339L28,371L58,341Z" fill="#8cb5c5" stroke="#8cb5c5" stroke-width="1.51"/><path d="M-5,278L-5,309L27,308Z" fill="#9ac7d3" stroke="#9ac7d3" stroke-width="1.51"/><path d="M-37,309L-5,309L-5,278Z" fill="#9ec8d6" stroke="#9ec8d6" stroke-width="1.51"/><path d="M152,-35L121,-4L154,-5Z" fill="#c8eacd" stroke="#c8eacd" stroke-width="1.51"/><path d="M89,-36L89,-4L121,-4Z" fill="#d4eed1" stroke="#d4eed1" stroke-width="1.51"/><path d="M121,-4L89,-4L91,26Z" fill="#d0edcd" stroke="#d0edcd" stroke-width="1.51"/><path d="M277,405L310,402L279,371Z" fill="#2c83ba" stroke="#2c83ba" stroke-width="1.51"/><path d="M339,371L373,372L341,341Z" fill="#1f7ab6" stroke="#1f7ab6" stroke-width="1.51"/><path d="M60,372L89,404L89,371Z" fill="#81a8ba" stroke="#81a8ba" stroke-width="1.51"/><path d="M184,434L184,404L153,434Z" fill="#5c8fa9" stroke="#5c8fa9" stroke-width="1.51"/><path d="M59,404L89,404L60,372Z" fill="#82a5b9" stroke="#82a5b9" stroke-width="1.51"/><path d="M341,-5L311,-4L342,28Z" fill="#94bdcd" stroke="#94bdcd" stroke-width="1.51"/><path d="M342,28L311,-4L310,28Z" fill="#93bfcd" stroke="#93bfcd" stroke-width="1.51"/><path d="M-36,152L-4,152L-5,120Z" fill="#c8eacd" stroke="#c8eacd" stroke-width="1.51"/><path d="M-6,215L-36,216L-5,245Z" fill="#afdcd7" stroke="#afdcd7" stroke-width="1.51"/><path d="M403,121L404,89L371,89Z" fill="#7aa2b5" stroke="#7aa2b5" stroke-width="1.51"/><path d="M434,90L404,89L403,121Z" fill="#779aad" stroke="#779aad" stroke-width="1.51"/><path d="M435,216L402,214L404,247Z" fill="#478bb2" stroke="#478bb2" stroke-width="1.51"/><path d="M403,340L404,310L373,309Z" fill="#217ab4" stroke="#217ab4" stroke-width="1.51"/><path d="M403,340L373,309L372,341Z" fill="#1e7ab6" stroke="#1e7ab6" stroke-width="1.51"/><path d="M184,404L153,402L153,434Z" fill="#6294ac" stroke="#6294ac" stroke-width="1.51"/><path d="M277,405L310,434L310,402Z" fill="#2879b0" stroke="#2879b0" stroke-width="1.51"/><path d="M-35,184L-36,216L-6,215Z" fill="#b6e1d6" stroke="#b6e1d6" stroke-width="1.51"/><path d="M153,434L153,402L120,404Z" fill="#6a97aa" stroke="#6a97aa" stroke-width="1.51"/><path d="M216,-6L183,-35L183,-4Z" fill="#b7e3d3" stroke="#b7e3d3" stroke-width="1.51"/><path d="M216,-37L216,-6L248,-35Z" fill="#b0dcda" stroke="#b0dcda" stroke-width="1.51"/><path d="M216,-6L246,-5L248,-35Z" fill="#acdad9" stroke="#acdad9" stroke-width="1.51"/><path d="M404,185L433,182L404,153Z" fill="#5e92ad" stroke="#5e92ad" stroke-width="1.51"/><path d="M404,153L434,152L403,121Z" fill="#6a96a9" stroke="#6a96a9" stroke-width="1.51"/><path d="M435,216L404,185L402,214Z" fill="#4f8eb0" stroke="#4f8eb0" stroke-width="1.51"/><path d="M435,216L404,247L433,246Z" fill="#4185b0" stroke="#4185b0" stroke-width="1.51"/><path d="M248,-35L246,-5L277,-5Z" fill="#a7d6db" stroke="#a7d6db" stroke-width="1.51"/><path d="M433,246L404,247L435,277Z" fill="#3781b2" stroke="#3781b2" stroke-width="1.51"/><path d="M-35,184L-36,152L-36,216Z" fill="#bee5d5" stroke="#bee5d5" stroke-width="1.51"/><path d="M-37,121L-36,152L-5,120Z" fill="#cdebcf" stroke="#cdebcf" stroke-width="1.51"/><path d="M121,435L153,434L120,404Z" fill="#6c94a6" stroke="#6c94a6" stroke-width="1.51"/><path d="M183,-35L152,-35L154,-5Z" fill="#c3e7d1" stroke="#c3e7d1" stroke-width="1.51"/><path d="M120,-37L152,-35L183,-35Z" fill="#c8ead2" stroke="#c8ead2" stroke-width="1.51"/><path d="M435,277L404,247L402,277Z" fill="#3382b6" stroke="#3382b6" stroke-width="1.51"/><path d="M-36,216L-37,247L-5,245Z" fill="#aedbdb" stroke="#aedbdb" stroke-width="1.51"/><path d="M-36,152L-37,247L-36,216Z" fill="#b8e2d8" stroke="#b8e2d8" stroke-width="1.51"/><path d="M277,-35L248,-35L277,-5Z" fill="#a6d3dc" stroke="#a6d3dc" stroke-width="1.51"/><path d="M215,466L248,434L214,433Z" fill="#4480a7" stroke="#4480a7" stroke-width="1.51"/><path d="M214,433L248,434L248,404Z" fill="#4185b0" stroke="#4185b0" stroke-width="1.51"/><path d="M466,183L434,152L433,182Z" fill="#5a88a2" stroke="#5a88a2" stroke-width="1.51"/><path d="M433,182L434,152L404,153Z" fill="#6190a8" stroke="#6190a8" stroke-width="1.51"/><path d="M-5,342L28,371L28,339Z" fill="#8fb5c9" stroke="#8fb5c9" stroke-width="1.51"/><path d="M27,-5L26,26L57,26Z" fill="#dcf2d6" stroke="#dcf2d6" stroke-width="1.51"/><path d="M57,26L26,26L27,57Z" fill="#d8f0d2" stroke="#d8f0d2" stroke-width="1.51"/><path d="M-5,90L-37,121L-5,120Z" fill="#d1edd0" stroke="#d1edd0" stroke-width="1.51"/><path d="M60,-5L57,26L89,-4Z" fill="#d8f0d2" stroke="#d8f0d2" stroke-width="1.51"/><path d="M372,57L372,26L342,28Z" fill="#8bb1c4" stroke="#8bb1c4" stroke-width="1.51"/><path d="M309,-36L277,-35L277,-5Z" fill="#a2cdd9" stroke="#a2cdd9" stroke-width="1.51"/><path d="M404,28L372,26L372,57Z" fill="#88abc1" stroke="#88abc1" stroke-width="1.51"/><path d="M342,403L373,372L339,371Z" fill="#1974b3" stroke="#1974b3" stroke-width="1.51"/><path d="M342,403L339,371L310,402Z" fill="#1d77b3" stroke="#1d77b3" stroke-width="1.51"/><path d="M-3,28L-3,58L27,57Z" fill="#dcf1d5" stroke="#dcf1d5" stroke-width="1.51"/><path d="M89,-36L60,-5L89,-4Z" fill="#daf1d4" stroke="#daf1d4" stroke-width="1.51"/><path d="M28,371L59,404L60,372Z" fill="#86aabf" stroke="#86aabf" stroke-width="1.51"/><path d="M90,435L121,435L120,404Z" fill="#7396a9" stroke="#7396a9" stroke-width="1.51"/><path d="M-5,309L-5,342L28,339Z" fill="#94bdce" stroke="#94bdce" stroke-width="1.51"/><path d="M-37,247L-37,277L-5,278Z" fill="#a6d4dd" stroke="#a6d4dd" stroke-width="1.51"/><path d="M309,-36L277,-5L311,-4Z" fill="#9ec8d6" stroke="#9ec8d6" stroke-width="1.51"/><path d="M248,-35L277,-35L216,-37Z" fill="#add9dd" stroke="#add9dd" stroke-width="1.51"/><path d="M-37,89L-37,121L-5,90Z" fill="#d6efd3" stroke="#d6efd3" stroke-width="1.51"/><path d="M-36,152L-37,121L-37,247Z" fill="#c2e7d4" stroke="#c2e7d4" stroke-width="1.51"/><path d="M183,467L215,466L184,434Z" fill="#5183a2" stroke="#5183a2" stroke-width="1.51"/><path d="M246,467L277,436L248,434Z" fill="#367aab" stroke="#367aab" stroke-width="1.51"/><path d="M90,435L120,404L89,404Z" fill="#779aae" stroke="#779aae" stroke-width="1.51"/><path d="M-35,340L-5,342L-5,309Z" fill="#98bed1" stroke="#98bed1" stroke-width="1.51"/><path d="M28,371L26,404L59,404Z" fill="#87a7bf" stroke="#87a7bf" stroke-width="1.51"/><path d="M433,58L403,59L404,89Z" fill="#809eb2" stroke="#809eb2" stroke-width="1.51"/><path d="M404,89L403,59L371,89Z" fill="#80a4b8" stroke="#80a4b8" stroke-width="1.51"/><path d="M373,372L403,340L372,341Z" fill="#1974b3" stroke="#1974b3" stroke-width="1.51"/><path d="M435,308L435,277L402,277Z" fill="#2c79af" stroke="#2c79af" stroke-width="1.51"/><path d="M152,-35L120,-37L121,-4Z" fill="#cdebcf" stroke="#cdebcf" stroke-width="1.51"/><path d="M216,-37L120,-37L183,-35Z" fill="#c2e7d4" stroke="#c2e7d4" stroke-width="1.51"/><path d="M340,434L342,403L310,402Z" fill="#1d70ac" stroke="#1d70ac" stroke-width="1.51"/><path d="M248,434L277,436L277,405Z" fill="#327eb2" stroke="#327eb2" stroke-width="1.51"/><path d="M215,466L214,433L184,434Z" fill="#4c84a5" stroke="#4c84a5" stroke-width="1.51"/><path d="M434,152L435,122L403,121Z" fill="#6c94a6" stroke="#6c94a6" stroke-width="1.51"/><path d="M467,151L435,122L434,152Z" fill="#678b9f" stroke="#678b9f" stroke-width="1.51"/><path d="M435,308L402,277L404,310Z" fill="#2979b0" stroke="#2979b0" stroke-width="1.51"/><path d="M466,216L466,183L435,216Z" fill="#4c82a3" stroke="#4c82a3" stroke-width="1.51"/><path d="M372,26L341,-5L342,28Z" fill="#90b5c9" stroke="#90b5c9" stroke-width="1.51"/><path d="M60,434L90,435L89,404Z" fill="#7b99ad" stroke="#7b99ad" stroke-width="1.51"/><path d="M183,467L184,434L153,434Z" fill="#5a88a2" stroke="#5a88a2" stroke-width="1.51"/><path d="M60,434L89,404L59,404Z" fill="#7f9eb2" stroke="#7f9eb2" stroke-width="1.51"/><path d="M-37,277L-37,309L-5,278Z" fill="#a2cdda" stroke="#a2cdda" stroke-width="1.51"/><path d="M-5,-4L-3,28L26,26Z" fill="#e0f3db" stroke="#e0f3db" stroke-width="1.51"/><path d="M120,-37L89,-36L121,-4Z" fill="#d3eed2" stroke="#d3eed2" stroke-width="1.51"/><path d="M-35,59L-37,89L-5,90Z" fill="#dcf1d6" stroke="#dcf1d6" stroke-width="1.51"/><path d="M-35,59L-5,90L-3,58Z" fill="#dcf2d5" stroke="#dcf2d5" stroke-width="1.51"/><path d="M277,436L310,434L277,405Z" fill="#2b78af" stroke="#2b78af" stroke-width="1.51"/><path d="M435,122L434,90L403,121Z" fill="#7296a9" stroke="#7296a9" stroke-width="1.51"/><path d="M403,59L404,28L372,57Z" fill="#85a6bd" stroke="#85a6bd" stroke-width="1.51"/><path d="M339,-37L309,-36L311,-4Z" fill="#9cc3d4" stroke="#9cc3d4" stroke-width="1.51"/><path d="M277,-35L309,-36L216,-37Z" fill="#a8d4de" stroke="#a8d4de" stroke-width="1.51"/><path d="M436,342L404,310L403,340Z" fill="#1d70ab" stroke="#1d70ab" stroke-width="1.51"/><path d="M436,342L435,308L404,310Z" fill="#206fa9" stroke="#206fa9" stroke-width="1.51"/><path d="M27,-5L57,26L60,-5Z" fill="#dbf1d5" stroke="#dbf1d5" stroke-width="1.51"/><path d="M26,26L-3,28L27,57Z" fill="#dbf1d5" stroke="#dbf1d5" stroke-width="1.51"/><path d="M-36,372L-4,371L-5,342Z" fill="#94b4cd" stroke="#94b4cd" stroke-width="1.51"/><path d="M-5,342L-4,371L28,371Z" fill="#90b3c9" stroke="#90b3c9" stroke-width="1.51"/><path d="M58,-36L27,-5L60,-5Z" fill="#dff3d9" stroke="#dff3d9" stroke-width="1.51"/><path d="M183,467L153,434L152,466Z" fill="#5e879f" stroke="#5e879f" stroke-width="1.51"/><path d="M277,436L278,466L310,434Z" fill="#2b71a7" stroke="#2b71a7" stroke-width="1.51"/><path d="M-4,371L26,404L28,371Z" fill="#8babc4" stroke="#8babc4" stroke-width="1.51"/><path d="M152,466L153,434L121,435Z" fill="#678c9f" stroke="#678c9f" stroke-width="1.51"/><path d="M372,26L373,-4L341,-5Z" fill="#90b3c9" stroke="#90b3c9" stroke-width="1.51"/><path d="M341,-5L339,-37L311,-4Z" fill="#98bed1" stroke="#98bed1" stroke-width="1.51"/><path d="M433,58L404,28L403,59Z" fill="#829fb6" stroke="#829fb6" stroke-width="1.51"/><path d="M373,372L404,371L403,340Z" fill="#146eae" stroke="#146eae" stroke-width="1.51"/><path d="M404,404L404,371L373,372Z" fill="#0c67ab" stroke="#0c67ab" stroke-width="1.51"/><path d="M373,404L373,372L342,403Z" fill="#136dae" stroke="#136dae" stroke-width="1.51"/><path d="M403,-3L373,-4L372,26Z" fill="#8dacc6" stroke="#8dacc6" stroke-width="1.51"/><path d="M435,216L466,183L433,182Z" fill="#5186a4" stroke="#5186a4" stroke-width="1.51"/><path d="M435,122L466,91L434,90Z" fill="#7390a3" stroke="#7390a3" stroke-width="1.51"/><path d="M466,216L435,216L433,246Z" fill="#4480a7" stroke="#4480a7" stroke-width="1.51"/><path d="M466,216L433,246L467,248Z" fill="#3f7ca7" stroke="#3f7ca7" stroke-width="1.51"/><path d="M467,248L433,246L435,277Z" fill="#357aab" stroke="#357aab" stroke-width="1.51"/><path d="M373,435L373,404L342,403Z" fill="#1466a6" stroke="#1466a6" stroke-width="1.51"/><path d="M120,465L152,466L121,435Z" fill="#6a8a9d" stroke="#6a8a9d" stroke-width="1.51"/><path d="M120,465L121,435L90,435Z" fill="#708fa2" stroke="#708fa2" stroke-width="1.51"/><path d="M183,467L246,467L215,466Z" fill="#4880a5" stroke="#4880a5" stroke-width="1.51"/><path d="M215,466L246,467L248,434Z" fill="#3f7ca7" stroke="#3f7ca7" stroke-width="1.51"/><path d="M310,434L340,434L310,402Z" fill="#216faa" stroke="#216faa" stroke-width="1.51"/><path d="M-3,28L-35,59L-3,58Z" fill="#dff3d8" stroke="#dff3d8" stroke-width="1.51"/><path d="M-36,28L-35,59L-3,28Z" fill="#e3f4dc" stroke="#e3f4dc" stroke-width="1.51"/><path d="M-4,371L-5,403L26,404Z" fill="#8ba9c4" stroke="#8ba9c4" stroke-width="1.51"/><path d="M-37,309L-35,340L-5,309Z" fill="#9cc3d4" stroke="#9cc3d4" stroke-width="1.51"/><path d="M27,435L60,434L59,404Z" fill="#819bb1" stroke="#819bb1" stroke-width="1.51"/><path d="M434,90L433,58L404,89Z" fill="#7c99ad" stroke="#7c99ad" stroke-width="1.51"/><path d="M466,183L467,151L434,152Z" fill="#5e879f" stroke="#5e879f" stroke-width="1.51"/><path d="M466,216L467,151L466,183Z" fill="#5584a1" stroke="#5584a1" stroke-width="1.51"/><path d="M467,279L467,248L435,277Z" fill="#3176a8" stroke="#3176a8" stroke-width="1.51"/><path d="M466,216L467,248L467,151Z" fill="#4c82a3" stroke="#4c82a3" stroke-width="1.51"/><path d="M467,279L435,277L435,308Z" fill="#2b71a8" stroke="#2b71a8" stroke-width="1.51"/><path d="M120,-37L58,-36L89,-36Z" fill="#dbf1d6" stroke="#dbf1d6" stroke-width="1.51"/><path d="M89,-36L58,-36L60,-5Z" fill="#def2d7" stroke="#def2d7" stroke-width="1.51"/><path d="M310,467L340,434L310,434Z" fill="#2068a2" stroke="#2068a2" stroke-width="1.51"/><path d="M467,59L433,58L434,90Z" fill="#7b93a7" stroke="#7b93a7" stroke-width="1.51"/><path d="M371,-35L339,-37L341,-5Z" fill="#97b9d0" stroke="#97b9d0" stroke-width="1.51"/><path d="M309,-36L339,-37L216,-37Z" fill="#a4cedb" stroke="#a4cedb" stroke-width="1.51"/><path d="M152,466L89,467L183,467Z" fill="#668a9d" stroke="#668a9d" stroke-width="1.51"/><path d="M89,467L120,465L90,435Z" fill="#728ea1" stroke="#728ea1" stroke-width="1.51"/><path d="M404,371L436,342L403,340Z" fill="#186aa8" stroke="#186aa8" stroke-width="1.51"/><path d="M435,371L436,342L404,371Z" fill="#1463a3" stroke="#1463a3" stroke-width="1.51"/><path d="M246,467L278,466L277,436Z" fill="#3176a9" stroke="#3176a9" stroke-width="1.51"/><path d="M467,151L466,121L435,122Z" fill="#698b9d" stroke="#698b9d" stroke-width="1.51"/><path d="M467,308L467,279L435,308Z" fill="#286da4" stroke="#286da4" stroke-width="1.51"/><path d="M-4,-35L-5,-4L27,-5Z" fill="#e6f6e0" stroke="#e6f6e0" stroke-width="1.51"/><path d="M27,-5L-5,-4L26,26Z" fill="#e0f3db" stroke="#e0f3db" stroke-width="1.51"/><path d="M60,434L89,467L90,435Z" fill="#7992a6" stroke="#7992a6" stroke-width="1.51"/><path d="M26,404L27,435L59,404Z" fill="#849fb7" stroke="#849fb7" stroke-width="1.51"/><path d="M-36,372L-5,403L-4,371Z" fill="#91aeca" stroke="#91aeca" stroke-width="1.51"/><path d="M373,-4L371,-35L341,-5Z" fill="#94b4cd" stroke="#94b4cd" stroke-width="1.51"/><path d="M404,28L403,-3L372,26Z" fill="#8aa8c2" stroke="#8aa8c2" stroke-width="1.51"/><path d="M435,26L403,-3L404,28Z" fill="#87a0ba" stroke="#87a0ba" stroke-width="1.51"/><path d="M435,26L404,28L433,58Z" fill="#829cb3" stroke="#829cb3" stroke-width="1.51"/><path d="M120,465L89,467L152,466Z" fill="#6d8c9e" stroke="#6d8c9e" stroke-width="1.51"/><path d="M58,467L89,467L60,434Z" fill="#7a91a5" stroke="#7a91a5" stroke-width="1.51"/><path d="M466,121L466,91L435,122Z" fill="#6f8da0" stroke="#6f8da0" stroke-width="1.51"/><path d="M467,151L466,91L466,121Z" fill="#6c8c9e" stroke="#6c8c9e" stroke-width="1.51"/><path d="M278,466L310,467L310,434Z" fill="#276ca4" stroke="#276ca4" stroke-width="1.51"/><path d="M373,435L404,404L373,404Z" fill="#0c61a3" stroke="#0c61a3" stroke-width="1.51"/><path d="M373,404L404,404L373,372Z" fill="#0b68aa" stroke="#0b68aa" stroke-width="1.51"/><path d="M246,467L310,467L278,466Z" fill="#2e73a7" stroke="#2e73a7" stroke-width="1.51"/><path d="M467,340L467,308L435,308Z" fill="#2167a0" stroke="#2167a0" stroke-width="1.51"/><path d="M-35,59L-36,28L-37,89Z" fill="#e2f4db" stroke="#e2f4db" stroke-width="1.51"/><path d="M-5,-4L-36,28L-3,28Z" fill="#e4f5de" stroke="#e4f5de" stroke-width="1.51"/><path d="M436,342L467,340L435,308Z" fill="#1c65a0" stroke="#1c65a0" stroke-width="1.51"/><path d="M373,435L342,403L340,434Z" fill="#1767a5" stroke="#1767a5" stroke-width="1.51"/><path d="M-35,340L-36,372L-5,342Z" fill="#97b8d0" stroke="#97b8d0" stroke-width="1.51"/><path d="M-37,309L-36,372L-35,340Z" fill="#9abcd3" stroke="#9abcd3" stroke-width="1.51"/><path d="M-4,434L27,435L26,404Z" fill="#869db7" stroke="#869db7" stroke-width="1.51"/><path d="M404,-35L371,-35L373,-4Z" fill="#92aecb" stroke="#92aecb" stroke-width="1.51"/><path d="M-5,-4L-37,-5L-36,28Z" fill="#e8f6e2" stroke="#e8f6e2" stroke-width="1.51"/><path d="M58,-36L26,-37L27,-5Z" fill="#e3f4dd" stroke="#e3f4dd" stroke-width="1.51"/><path d="M120,-37L26,-37L58,-36Z" fill="#e0f3d9" stroke="#e0f3d9" stroke-width="1.51"/><path d="M434,404L435,371L404,371Z" fill="#0c5ea0" stroke="#0c5ea0" stroke-width="1.51"/><path d="M371,466L373,435L340,434Z" fill="#145d9c" stroke="#145d9c" stroke-width="1.51"/><path d="M403,-3L404,-35L373,-4Z" fill="#8fabc7" stroke="#8fabc7" stroke-width="1.51"/><path d="M467,59L435,26L433,58Z" fill="#7e94aa" stroke="#7e94aa" stroke-width="1.51"/><path d="M27,466L58,467L27,435Z" fill="#7f93aa" stroke="#7f93aa" stroke-width="1.51"/><path d="M27,435L58,467L60,434Z" fill="#7e93aa" stroke="#7e93aa" stroke-width="1.51"/><path d="M-4,434L26,404L-5,403Z" fill="#88a1bc" stroke="#88a1bc" stroke-width="1.51"/><path d="M310,467L341,467L340,434Z" fill="#1c639f" stroke="#1c639f" stroke-width="1.51"/><path d="M466,91L467,59L434,90Z" fill="#7890a4" stroke="#7890a4" stroke-width="1.51"/><path d="M467,151L467,59L466,91Z" fill="#728ea1" stroke="#728ea1" stroke-width="1.51"/><path d="M466,372L436,342L435,371Z" fill="#145c9c" stroke="#145c9c" stroke-width="1.51"/><path d="M466,372L467,340L436,342Z" fill="#175e9c" stroke="#175e9c" stroke-width="1.51"/><path d="M26,-37L-4,-35L27,-5Z" fill="#e7f5e0" stroke="#e7f5e0" stroke-width="1.51"/><path d="M-37,435L-4,434L-5,403Z" fill="#8b9fbc" stroke="#8b9fbc" stroke-width="1.51"/><path d="M-36,372L-37,402L-5,403Z" fill="#91abc9" stroke="#91abc9" stroke-width="1.51"/><path d="M-37,309L-37,402L-36,372Z" fill="#98b6d0" stroke="#98b6d0" stroke-width="1.51"/><path d="M-36,28L-37,-5L-37,89Z" fill="#e5f5de" stroke="#e5f5de" stroke-width="1.51"/><path d="M-35,-35L-37,-5L-5,-4Z" fill="#ecf8e6" stroke="#ecf8e6" stroke-width="1.51"/><path d="M435,-5L404,-35L403,-3Z" fill="#8ca3c0" stroke="#8ca3c0" stroke-width="1.51"/><path d="M371,-35L404,-35L339,-37Z" fill="#96b3cf" stroke="#96b3cf" stroke-width="1.51"/><path d="M435,-5L403,-3L435,26Z" fill="#879eb9" stroke="#879eb9" stroke-width="1.51"/><path d="M404,404L434,404L404,371Z" fill="#095ea1" stroke="#095ea1" stroke-width="1.51"/><path d="M435,434L434,404L404,404Z" fill="#0a5496" stroke="#0a5496" stroke-width="1.51"/><path d="M403,436L404,404L373,435Z" fill="#095a9d" stroke="#095a9d" stroke-width="1.51"/><path d="M403,466L403,436L373,435Z" fill="#095497" stroke="#095497" stroke-width="1.51"/><path d="M465,-4L435,-5L435,26Z" fill="#8497b1" stroke="#8497b1" stroke-width="1.51"/><path d="M-4,466L27,466L27,435Z" fill="#8193ad" stroke="#8193ad" stroke-width="1.51"/><path d="M-4,466L27,435L-4,434Z" fill="#8497b1" stroke="#8497b1" stroke-width="1.51"/><path d="M341,467L371,466L340,434Z" fill="#175e9c" stroke="#175e9c" stroke-width="1.51"/><path d="M468,404L466,372L434,404Z" fill="#0a5294" stroke="#0a5294" stroke-width="1.51"/><path d="M434,404L466,372L435,371Z" fill="#0c5799" stroke="#0c5799" stroke-width="1.51"/><path d="M467,59L467,27L435,26Z" fill="#7f93aa" stroke="#7f93aa" stroke-width="1.51"/><path d="M-4,-35L-35,-35L-5,-4Z" fill="#ecf8e5" stroke="#ecf8e5" stroke-width="1.51"/><path d="M26,-37L-35,-35L-4,-35Z" fill="#ecf8e5" stroke="#ecf8e5" stroke-width="1.51"/><path d="M-37,402L-37,435L-5,403Z" fill="#8ea4c2" stroke="#8ea4c2" stroke-width="1.51"/><path d="M465,-4L434,-35L435,-5Z" fill="#8898b5" stroke="#8898b5" stroke-width="1.51"/><path d="M435,-5L434,-35L404,-35Z" fill="#8ca0bd" stroke="#8ca0bd" stroke-width="1.51"/><path d="M404,-35L466,-37L339,-37Z" fill="#92a8c7" stroke="#92a8c7" stroke-width="1.51"/><path d="M403,436L435,434L404,404Z" fill="#0a5396" stroke="#0a5396" stroke-width="1.51"/><path d="M436,467L435,434L403,436Z" fill="#09498c" stroke="#09498c" stroke-width="1.51"/><path d="M-36,465L-4,466L-4,434Z" fill="#8796b3" stroke="#8796b3" stroke-width="1.51"/><path d="M27,466L-4,466L58,467Z" fill="#8093ac" stroke="#8093ac" stroke-width="1.51"/><path d="M467,27L465,-4L435,26Z" fill="#8293ad" stroke="#8293ad" stroke-width="1.51"/><path d="M341,467L403,466L371,466Z" fill="#115899" stroke="#115899" stroke-width="1.51"/><path d="M371,466L403,466L373,435Z" fill="#0c5597" stroke="#0c5597" stroke-width="1.51"/><path d="M466,436L468,404L435,434Z" fill="#09488a" stroke="#09488a" stroke-width="1.51"/><path d="M435,434L468,404L434,404Z" fill="#094d8f" stroke="#094d8f" stroke-width="1.51"/><path d="M466,372L468,404L467,340Z" fill="#115899" stroke="#115899" stroke-width="1.51"/><path d="M467,340L468,404L467,308Z" fill="#175e9c" stroke="#175e9c" stroke-width="1.51"/><path d="M467,308L468,404L467,279Z" fill="#1c639f" stroke="#1c639f" stroke-width="1.51"/><path d="M467,279L468,404L467,248Z" fill="#2369a2" stroke="#2369a2" stroke-width="1.51"/><path d="M467,248L468,404L467,151Z" fill="#3176a8" stroke="#3176a8" stroke-width="1.51"/><path d="M467,151L468,404L467,59Z" fill="#4c82a3" stroke="#4c82a3" stroke-width="1.51"/><path d="M467,59L468,404L467,27Z" fill="#5e879f" stroke="#5e879f" stroke-width="1.51"/><path d="M-37,435L-36,465L-4,434Z" fill="#8998b6" stroke="#8998b6" stroke-width="1.51"/><path d="M467,27L466,-37L465,-4Z" fill="#8595b1" stroke="#8595b1" stroke-width="1.51"/><path d="M465,-4L466,-37L434,-35Z" fill="#8996b4" stroke="#8996b4" stroke-width="1.51"/><path d="M434,-35L466,-37L404,-35Z" fill="#8c9dbc" stroke="#8c9dbc" stroke-width="1.51"/><path d="M436,467L466,436L435,434Z" fill="#084385" stroke="#084385" stroke-width="1.51"/><path d="M403,466L436,467L403,436Z" fill="#094b8d" stroke="#094b8d" stroke-width="1.51"/><path d="M341,467L436,467L403,466Z" fill="#0a5294" stroke="#0a5294" stroke-width="1.51"/><path d="M436,467L466,466L466,436Z" fill="#084081" stroke="#084081" stroke-width="1.51"/><path d="M466,436L466,466L468,404Z" fill="#094586" stroke="#094586" stroke-width="1.51"/></svg>