<svg xmlns="http://www.w3.org/2000/svg" width="400" height="400"><path d="M200,256L185,292L300,251Z" fill="#67bfcc" stroke="#67bfcc" stroke-width="1.51"/><path d="M185,292L223,386L300,251Z" fill="#5cb7cd" stroke="#5cb7cd" stroke-width="1.51"/><path d="M223,386L355,344L300,251Z" fill="#49add0" stroke="#49add0" stroke-width="1.51"/><path d="M185,292L159,366L223,386Z" fill="#64b5c5" stroke="#64b5c5" stroke-width="1.51"/><path d="M223,386L311,446L355,344Z" fill="#3e9ec8" stroke="#3e9ec8" stroke-width="1.51"/><path d="M159,366L213,436L223,386Z" fill="#5aaac1" stroke="#5aaac1" stroke-width="1.51"/><path d="M410,326L360,194L300,251Z" fill="#50abc9" stroke="#50abc9" stroke-width="1.51"/><path d="M300,251L264,129L200,256Z" fill="#6dc3ca" stroke="#6dc3ca" stroke-width="1.51"/><path d="M159,366L110,430L213,436Z" fill="#65aabd" stroke="#65aabd" stroke-width="1.51"/><path d="M185,292L102,335L159,366Z" fill="#72bcc4" stroke="#72bcc4" stroke-width="1.51"/><path d="M37,235L102,335L185,292Z" fill="#84c8c4" stroke="#84c8c4" stroke-width="1.51"/><path d="M213,436L311,446L223,386Z" fill="#4b9ec2" stroke="#4b9ec2" stroke-width="1.51"/><path d="M355,344L410,326L300,251Z" fill="#42a4cb" stroke="#42a4cb" stroke-width="1.51"/><path d="M395,474L410,326L355,344Z" fill="#2e8ec0" stroke="#2e8ec0" stroke-width="1.51"/><path d="M360,194L264,129L300,251Z" fill="#69beca" stroke="#69beca" stroke-width="1.51"/><path d="M200,256L37,235L185,292Z" fill="#7fc9c5" stroke="#7fc9c5" stroke-width="1.51"/><path d="M264,129L149,152L200,256Z" fill="#80cdc3" stroke="#80cdc3" stroke-width="1.51"/><path d="M311,446L395,474L355,344Z" fill="#308dbf" stroke="#308dbf" stroke-width="1.51"/><path d="M213,436L292,485L311,446Z" fill="#4095c1" stroke="#4095c1" stroke-width="1.51"/><path d="M102,335L110,430L159,366Z" fill="#73b5bd" stroke="#73b5bd" stroke-width="1.51"/><path d="M213,436L160,533L292,485Z" fill="#4d96ba" stroke="#4d96ba" stroke-width="1.51"/><path d="M264,129L194,103L149,152Z" fill="#8dd2bf" stroke="#8dd2bf" stroke-width="1.51"/><path d="M554,345L458,285L410,326Z" fill="#318abe" stroke="#318abe" stroke-width="1.51"/><path d="M410,326L458,285L360,194Z" fill="#459fc5" stroke="#459fc5" stroke-width="1.51"/><path d="M292,485L314,508L311,446Z" fill="#338cbf" stroke="#338cbf" stroke-width="1.51"/><path d="M160,533L314,508L292,485Z" fill="#428cb7" stroke="#428cb7" stroke-width="1.51"/><path d="M12,154L37,235L149,152Z" fill="#9fd9bf" stroke="#9fd9bf" stroke-width="1.51"/><path d="M149,152L37,235L200,256Z" fill="#8bd0c0" stroke="#8bd0c0" stroke-width="1.51"/><path d="M102,335L63,478L110,430Z" fill="#77b0b9" stroke="#77b0b9" stroke-width="1.51"/><path d="M314,508L395,474L311,446Z" fill="#2c85bc" stroke="#2c85bc" stroke-width="1.51"/><path d="M264,129L226,38L194,103Z" fill="#92d2c1" stroke="#92d2c1" stroke-width="1.51"/><path d="M360,194L400,118L264,129Z" fill="#71bac3" stroke="#71bac3" stroke-width="1.51"/><path d="M458,285L400,118L360,194Z" fill="#5aa8c0" stroke="#5aa8c0" stroke-width="1.51"/><path d="M110,430L160,533L213,436Z" fill="#619fb8" stroke="#619fb8" stroke-width="1.51"/><path d="M110,430L63,478L160,533Z" fill="#6ea1b3" stroke="#6ea1b3" stroke-width="1.51"/><path d="M-70,433L63,478L102,335Z" fill="#84b3be" stroke="#84b3be" stroke-width="1.51"/><path d="M194,103L94,80L149,152Z" fill="#9ed9b9" stroke="#9ed9b9" stroke-width="1.51"/><path d="M325,18L226,38L264,129Z" fill="#90cec6" stroke="#90cec6" stroke-width="1.51"/><path d="M166,3L94,80L194,103Z" fill="#a6dcbc" stroke="#a6dcbc" stroke-width="1.51"/><path d="M37,235L-69,332L102,335Z" fill="#93cccb" stroke="#93cccb" stroke-width="1.51"/><path d="M94,80L12,154L149,152Z" fill="#a7dcb9" stroke="#a7dcb9" stroke-width="1.51"/><path d="M400,118L325,18L264,129Z" fill="#82c1c2" stroke="#82c1c2" stroke-width="1.51"/><path d="M434,539L510,454L395,474Z" fill="#136eae" stroke="#136eae" stroke-width="1.51"/><path d="M395,474L510,454L410,326Z" fill="#217db7" stroke="#217db7" stroke-width="1.51"/><path d="M314,508L434,539L395,474Z" fill="#2177b1" stroke="#2177b1" stroke-width="1.51"/><path d="M160,533L434,539L314,508Z" fill="#3382b5" stroke="#3382b5" stroke-width="1.51"/><path d="M510,454L554,345L410,326Z" fill="#237bb5" stroke="#237bb5" stroke-width="1.51"/><path d="M512,113L489,94L400,118Z" fill="#70a3b4" stroke="#70a3b4" stroke-width="1.51"/><path d="M-68,68L-58,170L12,154Z" fill="#bae4c4" stroke="#bae4c4" stroke-width="1.51"/><path d="M226,38L166,3L194,103Z" fill="#a0d9c1" stroke="#a0d9c1" stroke-width="1.51"/><path d="M293,-27L166,3L226,38Z" fill="#a2d7c8" stroke="#a2d7c8" stroke-width="1.51"/><path d="M512,113L400,118L458,285Z" fill="#5ea1b9" stroke="#5ea1b9" stroke-width="1.51"/><path d="M400,118L450,19L325,18Z" fill="#81b7bf" stroke="#81b7bf" stroke-width="1.51"/><path d="M554,345L566,278L458,285Z" fill="#3382b5" stroke="#3382b5" stroke-width="1.51"/><path d="M-58,170L-61,260L37,235Z" fill="#a6dacb" stroke="#a6dacb" stroke-width="1.51"/><path d="M566,278L512,113L458,285Z" fill="#4b8fb4" stroke="#4b8fb4" stroke-width="1.51"/><path d="M-61,260L-69,332L37,235Z" fill="#9ed3cf" stroke="#9ed3cf" stroke-width="1.51"/><path d="M325,18L293,-27L226,38Z" fill="#99d1cc" stroke="#99d1cc" stroke-width="1.51"/><path d="M355,-75L293,-27L325,18Z" fill="#96cace" stroke="#96cace" stroke-width="1.51"/><path d="M-61,260L-94,346L-69,332Z" fill="#9dced4" stroke="#9dced4" stroke-width="1.51"/><path d="M12,154L-58,170L37,235Z" fill="#aaddc5" stroke="#aaddc5" stroke-width="1.51"/><path d="M-68,68L12,154L94,80Z" fill="#bbe5bd" stroke="#bbe5bd" stroke-width="1.51"/><path d="M-70,433L9,533L63,478Z" fill="#83a8bb" stroke="#83a8bb" stroke-width="1.51"/><path d="M63,478L35,567L160,533Z" fill="#7098aa" stroke="#7098aa" stroke-width="1.51"/><path d="M160,533L35,567L434,539Z" fill="#4d89ab" stroke="#4d89ab" stroke-width="1.51"/><path d="M489,-50L450,19L489,94Z" fill="#81a7ba" stroke="#81a7ba" stroke-width="1.51"/><path d="M489,94L450,19L400,118Z" fill="#78aab8" stroke="#78aab8" stroke-width="1.51"/><path d="M9,533L35,567L63,478Z" fill="#799bae" stroke="#799bae" stroke-width="1.51"/><path d="M9,533L-115,496L35,567Z" fill="#819db3" stroke="#819db3" stroke-width="1.51"/><path d="M-69,332L-70,433L102,335Z" fill="#8fc0c7" stroke="#8fc0c7" stroke-width="1.51"/><path d="M-69,332L-94,346L-70,433Z" fill="#95c2ce" stroke="#95c2ce" stroke-width="1.51"/><path d="M-155,243L-94,346L-61,260Z" fill="#a4d5d8" stroke="#a4d5d8" stroke-width="1.51"/><path d="M554,345L527,537L566,278Z" fill="#1f6ca7" stroke="#1f6ca7" stroke-width="1.51"/><path d="M510,454L527,537L554,345Z" fill="#1466a5" stroke="#1466a5" stroke-width="1.51"/><path d="M434,539L527,537L510,454Z" fill="#0961a5" stroke="#0961a5" stroke-width="1.51"/><path d="M35,567L527,537L434,539Z" fill="#2c77ad" stroke="#2c77ad" stroke-width="1.51"/><path d="M435,-44L355,-75L325,18Z" fill="#91c0c9" stroke="#91c0c9" stroke-width="1.51"/><path d="M293,-27L190,-102L166,3Z" fill="#a9dbcc" stroke="#a9dbcc" stroke-width="1.51"/><path d="M450,19L435,-44L325,18Z" fill="#8ab8c2" stroke="#8ab8c2" stroke-width="1.51"/><path d="M489,-50L435,-44L450,19Z" fill="#87adc0" stroke="#87adc0" stroke-width="1.51"/><path d="M-94,346L-110,450L-70,433Z" fill="#93bacc" stroke="#93bacc" stroke-width="1.51"/><path d="M-70,433L-115,496L9,533Z" fill="#88a9c1" stroke="#88a9c1" stroke-width="1.51"/><path d="M-58,170L-155,243L-61,260Z" fill="#adddd2" stroke="#adddd2" stroke-width="1.51"/><path d="M-94,346L-155,243L-110,450Z" fill="#9dc9d6" stroke="#9dc9d6" stroke-width="1.51"/><path d="M-12,-23L-68,68L94,80Z" fill="#c7e9c3" stroke="#c7e9c3" stroke-width="1.51"/><path d="M96,-81L94,80L166,3Z" fill="#b8e4bf" stroke="#b8e4bf" stroke-width="1.51"/><path d="M249,-172L190,-102L293,-27Z" fill="#abdad5" stroke="#abdad5" stroke-width="1.51"/><path d="M190,-102L96,-81L166,3Z" fill="#b8e3c8" stroke="#b8e3c8" stroke-width="1.51"/><path d="M-141,126L-155,243L-58,170Z" fill="#b9e3d1" stroke="#b9e3d1" stroke-width="1.51"/><path d="M96,-81L-12,-23L94,80Z" fill="#c5e9c3" stroke="#c5e9c3" stroke-width="1.51"/><path d="M-155,243L-115,496L-110,450Z" fill="#98bfd1" stroke="#98bfd1" stroke-width="1.51"/><path d="M-110,450L-115,496L-70,433Z" fill="#8fb0c8" stroke="#8fb0c8" stroke-width="1.51"/><path d="M552,-148L489,-50L512,113Z" fill="#83a0b7" stroke="#83a0b7" stroke-width="1.51"/><path d="M512,113L489,-50L489,94Z" fill="#79a1b4" stroke="#79a1b4" stroke-width="1.51"/><path d="M435,-44L477,-108L355,-75Z" fill="#90b7c9" stroke="#90b7c9" stroke-width="1.51"/><path d="M-143,20L-141,126L-68,68Z" fill="#cfecce" stroke="#cfecce" stroke-width="1.51"/><path d="M-68,68L-141,126L-58,170Z" fill="#c1e7ca" stroke="#c1e7ca" stroke-width="1.51"/><path d="M249,-172L293,-27L355,-75Z" fill="#a1d2d7" stroke="#a1d2d7" stroke-width="1.51"/><path d="M249,-172L102,-126L190,-102Z" fill="#bae4d3" stroke="#bae4d3" stroke-width="1.51"/><path d="M190,-102L102,-126L96,-81Z" fill="#c1e7cc" stroke="#c1e7cc" stroke-width="1.51"/><path d="M96,-81L-5,-156L-12,-23Z" fill="#d3eece" stroke="#d3eece" stroke-width="1.51"/><path d="M489,-50L477,-108L435,-44Z" fill="#8baec4" stroke="#8baec4" stroke-width="1.51"/><path d="M552,-148L477,-108L489,-50Z" fill="#8ba6c1" stroke="#8ba6c1" stroke-width="1.51"/><path d="M477,-108L360,-155L355,-75Z" fill="#96bed0" stroke="#96bed0" stroke-width="1.51"/><path d="M360,-155L249,-172L355,-75Z" fill="#a3cfda" stroke="#a3cfda" stroke-width="1.51"/><path d="M-141,126L-143,20L-155,243Z" fill="#c7e9d0" stroke="#c7e9d0" stroke-width="1.51"/><path d="M-12,-23L-143,20L-68,68Z" fill="#d3eecd" stroke="#d3eecd" stroke-width="1.51"/><path d="M-123,-71L-143,20L-12,-23Z" fill="#dbf1d5" stroke="#dbf1d5" stroke-width="1.51"/><path d="M102,-126L-5,-156L96,-81Z" fill="#d1edcf" stroke="#d1edcf" stroke-width="1.51"/><path d="M249,-172L-5,-156L102,-126Z" fill="#caead0" stroke="#caead0" stroke-width="1.51"/><path d="M-5,-156L-123,-71L-12,-23Z" fill="#dcf2d6" stroke="#dcf2d6" stroke-width="1.51"/><path d="M360,-155L552,-148L249,-172Z" fill="#9dc2d5" stroke="#9dc2d5" stroke-width="1.51"/><path d="M477,-108L552,-148L360,-155Z" fill="#93b1cc" stroke="#93b1cc" stroke-width="1.51"/><path d="M566,278L552,-148L512,113Z" fill="#6f94a6" stroke="#6f94a6" stroke-width="1.51"/><path d="M-5,-156L-123,-172L-123,-71Z" fill="#e6f6e0" stroke="#e6f6e0" stroke-width="1.51"/><path d="M-123,-71L-123,-172L-143,20Z" fill="#e5f5de" stroke="#e5f5de" stroke-width="1.51"/><path d="M249,-172L-123,-172L-5,-156Z" fill="#dbf1d6" stroke="#dbf1d6" stroke-width="1.51"/></svg>