<svg xmlns="http://www.w3.org/2000/svg" width="400" height="400"><path d="M199,198L233,199L200,166Z" fill="#7dcbc4" stroke="#7dcbc4" stroke-width="1.51"/><path d="M233,199L234,164L200,166Z" fill="#7ecac4" stroke="#7ecac4" stroke-width="1.51"/><path d="M233,199L267,166L234,164Z" fill="#78c6c7" stroke="#78c6c7" stroke-width="1.51"/><path d="M199,198L201,234L233,199Z" fill="#75c8c6" stroke="#75c8c6" stroke-width="1.51"/><path d="M233,199L269,201L267,166Z" fill="#70c2c9" stroke="#70c2c9" stroke-width="1.51"/><path d="M234,164L201,130L200,166Z" fill="#89cfc0" stroke="#89cfc0" stroke-width="1.51"/><path d="M269,131L233,131L234,164Z" fill="#85cac3" stroke="#85cac3" stroke-width="1.51"/><path d="M201,234L235,234L233,199Z" fill="#6ec3c9" stroke="#6ec3c9" stroke-width="1.51"/><path d="M233,131L201,130L234,164Z" fill="#8bcfc0" stroke="#8bcfc0" stroke-width="1.51"/><path d="M200,166L164,165L199,198Z" fill="#89d0c0" stroke="#89d0c0" stroke-width="1.51"/><path d="M201,130L164,165L200,166Z" fill="#90d3bd" stroke="#90d3bd" stroke-width="1.51"/><path d="M199,198L164,235L201,234Z" fill="#7ac9c5" stroke="#7ac9c5" stroke-width="1.51"/><path d="M235,234L269,201L233,199Z" fill="#6ac1cb" stroke="#6ac1cb" stroke-width="1.51"/><path d="M164,165L163,200L199,198Z" fill="#8ad0c0" stroke="#8ad0c0" stroke-width="1.51"/><path d="M267,166L269,131L234,164Z" fill="#7ec7c5" stroke="#7ec7c5" stroke-width="1.51"/><path d="M233,131L234,97L201,130Z" fill="#92d1c1" stroke="#92d1c1" stroke-width="1.51"/><path d="M305,166L269,131L267,166Z" fill="#78c1c4" stroke="#78c1c4" stroke-width="1.51"/><path d="M163,200L164,235L199,198Z" fill="#82cdc3" stroke="#82cdc3" stroke-width="1.51"/><path d="M268,270L270,235L235,234Z" fill="#59b8d0" stroke="#59b8d0" stroke-width="1.51"/><path d="M201,130L165,129L164,165Z" fill="#99d6bb" stroke="#99d6bb" stroke-width="1.51"/><path d="M164,165L131,199L163,200Z" fill="#91d3bd" stroke="#91d3bd" stroke-width="1.51"/><path d="M199,95L165,129L201,130Z" fill="#9cd8bd" stroke="#9cd8bd" stroke-width="1.51"/><path d="M235,234L270,235L269,201Z" fill="#61bcce" stroke="#61bcce" stroke-width="1.51"/><path d="M269,201L303,198L267,166Z" fill="#6abcc8" stroke="#6abcc8" stroke-width="1.51"/><path d="M200,268L235,234L201,234Z" fill="#6ac0cb" stroke="#6ac0cb" stroke-width="1.51"/><path d="M163,200L130,235L164,235Z" fill="#87cdc2" stroke="#87cdc2" stroke-width="1.51"/><path d="M131,165L131,199L164,165Z" fill="#99d6bb" stroke="#99d6bb" stroke-width="1.51"/><path d="M166,267L200,268L201,234Z" fill="#70c2ca" stroke="#70c2ca" stroke-width="1.51"/><path d="M130,131L131,165L164,165Z" fill="#a0d9b8" stroke="#a0d9b8" stroke-width="1.51"/><path d="M269,131L234,97L233,131Z" fill="#8dcdc4" stroke="#8dcdc4" stroke-width="1.51"/><path d="M304,233L303,198L269,201Z" fill="#5eb5c9" stroke="#5eb5c9" stroke-width="1.51"/><path d="M200,268L234,270L235,234Z" fill="#62bccd" stroke="#62bccd" stroke-width="1.51"/><path d="M234,97L199,95L201,130Z" fill="#98d5c2" stroke="#98d5c2" stroke-width="1.51"/><path d="M303,198L305,166L267,166Z" fill="#6dbac5" stroke="#6dbac5" stroke-width="1.51"/><path d="M164,235L166,267L201,234Z" fill="#77c6c7" stroke="#77c6c7" stroke-width="1.51"/><path d="M200,268L200,303L234,270Z" fill="#61b9cb" stroke="#61b9cb" stroke-width="1.51"/><path d="M132,269L166,267L164,235Z" fill="#7ec7c5" stroke="#7ec7c5" stroke-width="1.51"/><path d="M269,131L269,97L234,97Z" fill="#8dccc7" stroke="#8dccc7" stroke-width="1.51"/><path d="M234,61L200,61L199,95Z" fill="#a3d9c6" stroke="#a3d9c6" stroke-width="1.51"/><path d="M302,97L269,97L269,131Z" fill="#88c6c6" stroke="#88c6c6" stroke-width="1.51"/><path d="M165,129L130,131L164,165Z" fill="#a1d9b8" stroke="#a1d9b8" stroke-width="1.51"/><path d="M131,165L96,166L131,199Z" fill="#a0d9bc" stroke="#a0d9bc" stroke-width="1.51"/><path d="M129,97L130,131L165,129Z" fill="#abdeb8" stroke="#abdeb8" stroke-width="1.51"/><path d="M199,95L165,96L165,129Z" fill="#a3dabe" stroke="#a3dabe" stroke-width="1.51"/><path d="M305,166L303,131L269,131Z" fill="#7bbec1" stroke="#7bbec1" stroke-width="1.51"/><path d="M303,198L337,199L305,166Z" fill="#63b1c2" stroke="#63b1c2" stroke-width="1.51"/><path d="M270,235L304,233L269,201Z" fill="#5cb6cc" stroke="#5cb6cc" stroke-width="1.51"/><path d="M302,268L304,233L270,235Z" fill="#50aecd" stroke="#50aecd" stroke-width="1.51"/><path d="M131,199L130,235L163,200Z" fill="#8ed1bf" stroke="#8ed1bf" stroke-width="1.51"/><path d="M95,198L130,235L131,199Z" fill="#95d4c0" stroke="#95d4c0" stroke-width="1.51"/><path d="M234,270L268,270L235,234Z" fill="#59b8d0" stroke="#59b8d0" stroke-width="1.51"/><path d="M130,235L132,269L164,235Z" fill="#85cac3" stroke="#85cac3" stroke-width="1.51"/><path d="M166,267L200,303L200,268Z" fill="#6abcc8" stroke="#6abcc8" stroke-width="1.51"/><path d="M268,270L302,268L270,235Z" fill="#4eb0d0" stroke="#4eb0d0" stroke-width="1.51"/><path d="M234,61L199,95L234,97Z" fill="#9dd5c5" stroke="#9dd5c5" stroke-width="1.51"/><path d="M303,131L302,97L269,131Z" fill="#83c1c2" stroke="#83c1c2" stroke-width="1.51"/><path d="M338,131L302,97L303,131Z" fill="#7ebabf" stroke="#7ebabf" stroke-width="1.51"/><path d="M164,304L200,303L166,267Z" fill="#6dbac5" stroke="#6dbac5" stroke-width="1.51"/><path d="M234,270L269,302L268,270Z" fill="#4eafd0" stroke="#4eafd0" stroke-width="1.51"/><path d="M268,270L269,302L302,268Z" fill="#47aace" stroke="#47aace" stroke-width="1.51"/><path d="M130,131L96,166L131,165Z" fill="#a7dcb9" stroke="#a7dcb9" stroke-width="1.51"/><path d="M130,235L96,268L132,269Z" fill="#8acbc5" stroke="#8acbc5" stroke-width="1.51"/><path d="M304,233L337,199L303,198Z" fill="#59aec5" stroke="#59aec5" stroke-width="1.51"/><path d="M305,166L338,164L303,131Z" fill="#72b6bf" stroke="#72b6bf" stroke-width="1.51"/><path d="M338,235L337,199L304,233Z" fill="#52a8c4" stroke="#52a8c4" stroke-width="1.51"/><path d="M130,131L95,130L96,166Z" fill="#aedfb9" stroke="#aedfb9" stroke-width="1.51"/><path d="M165,96L129,97L165,129Z" fill="#aaddbb" stroke="#aaddbb" stroke-width="1.51"/><path d="M130,62L129,97L165,96Z" fill="#b4e2bc" stroke="#b4e2bc" stroke-width="1.51"/><path d="M96,166L95,198L131,199Z" fill="#9fd9bf" stroke="#9fd9bf" stroke-width="1.51"/><path d="M199,95L164,62L165,96Z" fill="#a9ddc0" stroke="#a9ddc0" stroke-width="1.51"/><path d="M234,61L234,97L269,97Z" fill="#97d1c8" stroke="#97d1c8" stroke-width="1.51"/><path d="M269,60L234,61L269,97Z" fill="#98d0cb" stroke="#98d0cb" stroke-width="1.51"/><path d="M337,199L338,164L305,166Z" fill="#66afc0" stroke="#66afc0" stroke-width="1.51"/><path d="M200,303L235,305L234,270Z" fill="#59b2ca" stroke="#59b2ca" stroke-width="1.51"/><path d="M235,305L269,302L234,270Z" fill="#50aecd" stroke="#50aecd" stroke-width="1.51"/><path d="M200,61L164,62L199,95Z" fill="#aadcc3" stroke="#aadcc3" stroke-width="1.51"/><path d="M338,164L338,131L303,131Z" fill="#75b3bc" stroke="#75b3bc" stroke-width="1.51"/><path d="M132,269L164,304L166,267Z" fill="#79c1c4" stroke="#79c1c4" stroke-width="1.51"/><path d="M200,303L199,337L235,305Z" fill="#59aec5" stroke="#59aec5" stroke-width="1.51"/><path d="M129,97L95,130L130,131Z" fill="#b2e0b9" stroke="#b2e0b9" stroke-width="1.51"/><path d="M96,166L62,199L95,198Z" fill="#a6dbc1" stroke="#a6dbc1" stroke-width="1.51"/><path d="M96,95L95,130L129,97Z" fill="#b8e3bc" stroke="#b8e3bc" stroke-width="1.51"/><path d="M302,268L338,235L304,233Z" fill="#4ba7c9" stroke="#4ba7c9" stroke-width="1.51"/><path d="M337,199L372,199L338,164Z" fill="#5ea7be" stroke="#5ea7be" stroke-width="1.51"/><path d="M340,270L338,235L302,268Z" fill="#42a2c8" stroke="#42a2c8" stroke-width="1.51"/><path d="M234,61L233,27L200,61Z" fill="#a4d8cb" stroke="#a4d8cb" stroke-width="1.51"/><path d="M303,62L269,60L269,97Z" fill="#92c9ca" stroke="#92c9ca" stroke-width="1.51"/><path d="M303,62L269,97L302,97Z" fill="#8dc5c6" stroke="#8dc5c6" stroke-width="1.51"/><path d="M132,269L130,303L164,304Z" fill="#7bbec1" stroke="#7bbec1" stroke-width="1.51"/><path d="M95,198L94,236L130,235Z" fill="#96d3c3" stroke="#96d3c3" stroke-width="1.51"/><path d="M62,199L94,236L95,198Z" fill="#a0d8c5" stroke="#a0d8c5" stroke-width="1.51"/><path d="M269,302L303,302L302,268Z" fill="#42a3ca" stroke="#42a3ca" stroke-width="1.51"/><path d="M269,337L303,302L269,302Z" fill="#3ea0c8" stroke="#3ea0c8" stroke-width="1.51"/><path d="M94,236L96,268L130,235Z" fill="#90cec6" stroke="#90cec6" stroke-width="1.51"/><path d="M96,268L130,303L132,269Z" fill="#85c4c4" stroke="#85c4c4" stroke-width="1.51"/><path d="M164,62L130,62L165,96Z" fill="#b4e1be" stroke="#b4e1be" stroke-width="1.51"/><path d="M129,26L130,62L164,62Z" fill="#bbe4c1" stroke="#bbe4c1" stroke-width="1.51"/><path d="M199,26L164,62L200,61Z" fill="#addec7" stroke="#addec7" stroke-width="1.51"/><path d="M340,97L303,62L302,97Z" fill="#88bdc3" stroke="#88bdc3" stroke-width="1.51"/><path d="M130,62L96,95L129,97Z" fill="#bbe5bd" stroke="#bbe5bd" stroke-width="1.51"/><path d="M373,163L338,131L338,164Z" fill="#6eabba" stroke="#6eabba" stroke-width="1.51"/><path d="M373,131L340,97L338,131Z" fill="#79afba" stroke="#79afba" stroke-width="1.51"/><path d="M338,131L340,97L302,97Z" fill="#7fb7be" stroke="#7fb7be" stroke-width="1.51"/><path d="M303,302L340,270L302,268Z" fill="#3e9fc9" stroke="#3e9fc9" stroke-width="1.51"/><path d="M338,235L372,199L337,199Z" fill="#54a4c0" stroke="#54a4c0" stroke-width="1.51"/><path d="M60,165L96,166L63,130Z" fill="#b3e1be" stroke="#b3e1be" stroke-width="1.51"/><path d="M60,165L62,199L96,166Z" fill="#addec2" stroke="#addec2" stroke-width="1.51"/><path d="M94,236L62,270L96,268Z" fill="#94cfca" stroke="#94cfca" stroke-width="1.51"/><path d="M164,338L199,337L164,304Z" fill="#66afc0" stroke="#66afc0" stroke-width="1.51"/><path d="M164,304L199,337L200,303Z" fill="#63b1c2" stroke="#63b1c2" stroke-width="1.51"/><path d="M235,305L269,337L269,302Z" fill="#45a5ca" stroke="#45a5ca" stroke-width="1.51"/><path d="M371,235L372,199L338,235Z" fill="#4e9ec0" stroke="#4e9ec0" stroke-width="1.51"/><path d="M269,60L233,27L234,61Z" fill="#9ed4ce" stroke="#9ed4ce" stroke-width="1.51"/><path d="M268,25L233,27L269,60Z" fill="#9dd2d1" stroke="#9dd2d1" stroke-width="1.51"/><path d="M199,337L234,338L235,305Z" fill="#52a8c4" stroke="#52a8c4" stroke-width="1.51"/><path d="M63,130L96,166L95,130Z" fill="#b4e2bc" stroke="#b4e2bc" stroke-width="1.51"/><path d="M233,27L199,26L200,61Z" fill="#a9dbcc" stroke="#a9dbcc" stroke-width="1.51"/><path d="M372,199L373,163L338,164Z" fill="#63a5ba" stroke="#63a5ba" stroke-width="1.51"/><path d="M96,95L63,130L95,130Z" fill="#bbe5bd" stroke="#bbe5bd" stroke-width="1.51"/><path d="M234,338L269,337L235,305Z" fill="#48a4c7" stroke="#48a4c7" stroke-width="1.51"/><path d="M303,302L338,304L340,270Z" fill="#3898c5" stroke="#3898c5" stroke-width="1.51"/><path d="M340,270L371,235L338,235Z" fill="#459dc4" stroke="#459dc4" stroke-width="1.51"/><path d="M131,339L164,338L164,304Z" fill="#70b2bd" stroke="#70b2bd" stroke-width="1.51"/><path d="M199,337L199,373L234,338Z" fill="#54a4c0" stroke="#54a4c0" stroke-width="1.51"/><path d="M373,163L373,131L338,131Z" fill="#70a9b7" stroke="#70a9b7" stroke-width="1.51"/><path d="M62,199L59,233L94,236Z" fill="#a0d7c7" stroke="#a0d7c7" stroke-width="1.51"/><path d="M96,268L95,303L130,303Z" fill="#86c2c4" stroke="#86c2c4" stroke-width="1.51"/><path d="M130,303L131,339L164,304Z" fill="#77b7be" stroke="#77b7be" stroke-width="1.51"/><path d="M26,201L59,233L62,199Z" fill="#a7dbca" stroke="#a7dbca" stroke-width="1.51"/><path d="M130,62L97,60L96,95Z" fill="#c1e7c0" stroke="#c1e7c0" stroke-width="1.51"/><path d="M199,26L165,25L164,62Z" fill="#b3e1c7" stroke="#b3e1c7" stroke-width="1.51"/><path d="M233,27L200,-7L199,26Z" fill="#acddd0" stroke="#acddd0" stroke-width="1.51"/><path d="M199,26L200,-7L165,25Z" fill="#b2e1cc" stroke="#b2e1cc" stroke-width="1.51"/><path d="M304,28L268,25L269,60Z" fill="#98ccd0" stroke="#98ccd0" stroke-width="1.51"/><path d="M304,28L269,60L303,62Z" fill="#94c7cc" stroke="#94c7cc" stroke-width="1.51"/><path d="M62,270L95,303L96,268Z" fill="#8fc8c8" stroke="#8fc8c8" stroke-width="1.51"/><path d="M96,95L61,95L63,130Z" fill="#c1e7c0" stroke="#c1e7c0" stroke-width="1.51"/><path d="M129,26L97,60L130,62Z" fill="#c2e8c2" stroke="#c2e8c2" stroke-width="1.51"/><path d="M340,270L374,270L371,235Z" fill="#3d97c4" stroke="#3d97c4" stroke-width="1.51"/><path d="M304,337L338,304L303,302Z" fill="#3595c3" stroke="#3595c3" stroke-width="1.51"/><path d="M340,97L337,60L303,62Z" fill="#89bbc2" stroke="#89bbc2" stroke-width="1.51"/><path d="M372,62L337,60L340,97Z" fill="#87b4c0" stroke="#87b4c0" stroke-width="1.51"/><path d="M373,131L371,96L340,97Z" fill="#7badba" stroke="#7badba" stroke-width="1.51"/><path d="M59,233L62,270L94,236Z" fill="#9ad2ca" stroke="#9ad2ca" stroke-width="1.51"/><path d="M303,373L304,337L269,337Z" fill="#3492c2" stroke="#3492c2" stroke-width="1.51"/><path d="M269,337L304,337L303,302Z" fill="#3899c4" stroke="#3899c4" stroke-width="1.51"/><path d="M337,60L304,28L303,62Z" fill="#90c0c8" stroke="#90c0c8" stroke-width="1.51"/><path d="M95,338L131,339L130,303Z" fill="#7cb6bd" stroke="#7cb6bd" stroke-width="1.51"/><path d="M164,338L199,373L199,337Z" fill="#5ea7be" stroke="#5ea7be" stroke-width="1.51"/><path d="M61,61L61,95L96,95Z" fill="#c8e9c3" stroke="#c8e9c3" stroke-width="1.51"/><path d="M25,163L26,201L60,165Z" fill="#b3e1c7" stroke="#b3e1c7" stroke-width="1.51"/><path d="M60,165L26,201L62,199Z" fill="#addec7" stroke="#addec7" stroke-width="1.51"/><path d="M165,25L129,26L164,62Z" fill="#bae4c4" stroke="#bae4c4" stroke-width="1.51"/><path d="M97,60L61,61L96,95Z" fill="#c8eac3" stroke="#c8eac3" stroke-width="1.51"/><path d="M406,235L408,198L372,199Z" fill="#4f96ba" stroke="#4f96ba" stroke-width="1.51"/><path d="M372,199L408,166L373,163Z" fill="#5f9eb8" stroke="#5f9eb8" stroke-width="1.51"/><path d="M373,163L408,130L373,131Z" fill="#6ea2b4" stroke="#6ea2b4" stroke-width="1.51"/><path d="M371,303L374,270L340,270Z" fill="#3591c2" stroke="#3591c2" stroke-width="1.51"/><path d="M371,303L340,270L338,304Z" fill="#3491c2" stroke="#3491c2" stroke-width="1.51"/><path d="M234,-9L200,-7L233,27Z" fill="#abdbd2" stroke="#abdbd2" stroke-width="1.51"/><path d="M165,25L130,-7L129,26Z" fill="#c1e7c7" stroke="#c1e7c7" stroke-width="1.51"/><path d="M234,-9L233,27L268,25Z" fill="#a4d6d4" stroke="#a4d6d4" stroke-width="1.51"/><path d="M163,372L199,373L164,338Z" fill="#63a5ba" stroke="#63a5ba" stroke-width="1.51"/><path d="M234,338L235,373L269,337Z" fill="#459dc4" stroke="#459dc4" stroke-width="1.51"/><path d="M59,233L25,270L62,270Z" fill="#9cd2cf" stroke="#9cd2cf" stroke-width="1.51"/><path d="M25,163L60,165L26,131Z" fill="#bae4c4" stroke="#bae4c4" stroke-width="1.51"/><path d="M199,373L235,373L234,338Z" fill="#4e9ebf" stroke="#4e9ebf" stroke-width="1.51"/><path d="M406,235L372,199L371,235Z" fill="#4b97bc" stroke="#4b97bc" stroke-width="1.51"/><path d="M373,131L408,130L371,96Z" fill="#75a5b5" stroke="#75a5b5" stroke-width="1.51"/><path d="M408,198L408,166L372,199Z" fill="#5999b7" stroke="#5999b7" stroke-width="1.51"/><path d="M270,-9L234,-9L268,25Z" fill="#a3d4d7" stroke="#a3d4d7" stroke-width="1.51"/><path d="M26,131L60,165L63,130Z" fill="#bbe5c1" stroke="#bbe5c1" stroke-width="1.51"/><path d="M374,337L371,303L338,304Z" fill="#2a88bc" stroke="#2a88bc" stroke-width="1.51"/><path d="M374,270L406,235L371,235Z" fill="#4093bf" stroke="#4093bf" stroke-width="1.51"/><path d="M338,340L338,304L304,337Z" fill="#2d8ebf" stroke="#2d8ebf" stroke-width="1.51"/><path d="M304,28L270,-9L268,25Z" fill="#9ccdd4" stroke="#9ccdd4" stroke-width="1.51"/><path d="M337,60L338,28L304,28Z" fill="#8fbdc8" stroke="#8fbdc8" stroke-width="1.51"/><path d="M372,62L338,28L337,60Z" fill="#8ab5c3" stroke="#8ab5c3" stroke-width="1.51"/><path d="M372,62L340,97L371,96Z" fill="#82afbc" stroke="#82afbc" stroke-width="1.51"/><path d="M407,270L406,235L374,270Z" fill="#388ebf" stroke="#388ebf" stroke-width="1.51"/><path d="M95,303L95,338L130,303Z" fill="#82bbc0" stroke="#82bbc0" stroke-width="1.51"/><path d="M62,270L61,303L95,303Z" fill="#91c6c8" stroke="#91c6c8" stroke-width="1.51"/><path d="M26,302L61,303L62,270Z" fill="#94c8cc" stroke="#94c8cc" stroke-width="1.51"/><path d="M407,62L372,62L371,96Z" fill="#82a9bb" stroke="#82a9bb" stroke-width="1.51"/><path d="M131,339L163,372L164,338Z" fill="#6eabba" stroke="#6eabba" stroke-width="1.51"/><path d="M130,371L163,372L131,339Z" fill="#71a9b8" stroke="#71a9b8" stroke-width="1.51"/><path d="M26,201L26,233L59,233Z" fill="#a6d9cd" stroke="#a6d9cd" stroke-width="1.51"/><path d="M25,270L26,233L-10,235Z" fill="#a4d6d4" stroke="#a4d6d4" stroke-width="1.51"/><path d="M61,303L95,338L95,303Z" fill="#89bdc3" stroke="#89bdc3" stroke-width="1.51"/><path d="M27,96L26,131L63,130Z" fill="#c4e8c4" stroke="#c4e8c4" stroke-width="1.51"/><path d="M61,95L27,96L63,130Z" fill="#c5e8c4" stroke="#c5e8c4" stroke-width="1.51"/><path d="M94,26L61,61L97,60Z" fill="#ccebc7" stroke="#ccebc7" stroke-width="1.51"/><path d="M129,26L94,26L97,60Z" fill="#c7e9c6" stroke="#c7e9c6" stroke-width="1.51"/><path d="M200,-7L165,-8L165,25Z" fill="#b8e3cd" stroke="#b8e3cd" stroke-width="1.51"/><path d="M201,-43L165,-8L200,-7Z" fill="#b8e3d2" stroke="#b8e3d2" stroke-width="1.51"/><path d="M235,373L269,373L269,337Z" fill="#3e98c3" stroke="#3e98c3" stroke-width="1.51"/><path d="M408,166L408,130L373,163Z" fill="#689db3" stroke="#689db3" stroke-width="1.51"/><path d="M130,-7L94,26L129,26Z" fill="#c8eac8" stroke="#c8eac8" stroke-width="1.51"/><path d="M304,-10L270,-9L304,28Z" fill="#9bcad4" stroke="#9bcad4" stroke-width="1.51"/><path d="M303,373L338,340L304,337Z" fill="#2d8bbd" stroke="#2d8bbd" stroke-width="1.51"/><path d="M95,338L130,371L131,339Z" fill="#79afba" stroke="#79afba" stroke-width="1.51"/><path d="M61,61L27,96L61,95Z" fill="#cbebc7" stroke="#cbebc7" stroke-width="1.51"/><path d="M-8,132L-7,164L25,163Z" fill="#bfe6ca" stroke="#bfe6ca" stroke-width="1.51"/><path d="M27,60L27,96L61,61Z" fill="#d1edca" stroke="#d1edca" stroke-width="1.51"/><path d="M165,-8L130,-7L165,25Z" fill="#bfe6ca" stroke="#bfe6ca" stroke-width="1.51"/><path d="M269,373L303,373L269,337Z" fill="#3692c2" stroke="#3692c2" stroke-width="1.51"/><path d="M443,200L443,166L408,198Z" fill="#568dab" stroke="#568dab" stroke-width="1.51"/><path d="M408,302L407,270L374,270Z" fill="#3087bd" stroke="#3087bd" stroke-width="1.51"/><path d="M408,302L374,270L371,303Z" fill="#2e88bd" stroke="#2e88bd" stroke-width="1.51"/><path d="M61,303L61,339L95,338Z" fill="#8abbc3" stroke="#8abbc3" stroke-width="1.51"/><path d="M26,233L25,270L59,233Z" fill="#a0d4d0" stroke="#a0d4d0" stroke-width="1.51"/><path d="M-8,199L26,233L26,201Z" fill="#acddd0" stroke="#acddd0" stroke-width="1.51"/><path d="M236,-43L201,-43L234,-9Z" fill="#b1ddd9" stroke="#b1ddd9" stroke-width="1.51"/><path d="M337,-7L304,-10L304,28Z" fill="#97c3d0" stroke="#97c3d0" stroke-width="1.51"/><path d="M337,-7L304,28L338,28Z" fill="#93bfcc" stroke="#93bfcc" stroke-width="1.51"/><path d="M408,130L409,95L371,96Z" fill="#77a2b5" stroke="#77a2b5" stroke-width="1.51"/><path d="M372,62L374,26L338,28Z" fill="#8bb2c3" stroke="#8bb2c3" stroke-width="1.51"/><path d="M443,96L409,95L408,130Z" fill="#749aad" stroke="#749aad" stroke-width="1.51"/><path d="M441,132L408,130L408,166Z" fill="#6997ab" stroke="#6997ab" stroke-width="1.51"/><path d="M28,337L61,339L61,303Z" fill="#8dbcc6" stroke="#8dbcc6" stroke-width="1.51"/><path d="M95,338L95,374L130,371Z" fill="#7badba" stroke="#7badba" stroke-width="1.51"/><path d="M338,340L374,337L338,304Z" fill="#2987bb" stroke="#2987bb" stroke-width="1.51"/><path d="M374,374L374,337L338,340Z" fill="#217db7" stroke="#217db7" stroke-width="1.51"/><path d="M94,-9L61,25L94,26Z" fill="#d1edcd" stroke="#d1edcd" stroke-width="1.51"/><path d="M94,26L61,25L61,61Z" fill="#d1edca" stroke="#d1edca" stroke-width="1.51"/><path d="M407,62L374,26L372,62Z" fill="#86abbf" stroke="#86abbf" stroke-width="1.51"/><path d="M25,163L-8,199L26,201Z" fill="#b3e1cc" stroke="#b3e1cc" stroke-width="1.51"/><path d="M-8,132L25,163L26,131Z" fill="#c1e7c7" stroke="#c1e7c7" stroke-width="1.51"/><path d="M-8,132L26,131L-9,97Z" fill="#c9eaca" stroke="#c9eaca" stroke-width="1.51"/><path d="M374,26L337,-7L338,28Z" fill="#90b8c9" stroke="#90b8c9" stroke-width="1.51"/><path d="M25,270L26,302L62,270Z" fill="#98cbd0" stroke="#98cbd0" stroke-width="1.51"/><path d="M-9,270L26,302L25,270Z" fill="#9ccdd4" stroke="#9ccdd4" stroke-width="1.51"/><path d="M-7,164L-8,199L25,163Z" fill="#b9e3cd" stroke="#b9e3cd" stroke-width="1.51"/><path d="M198,408L199,373L164,406Z" fill="#599ab7" stroke="#599ab7" stroke-width="1.51"/><path d="M198,408L234,407L199,373Z" fill="#4f96b9" stroke="#4f96b9" stroke-width="1.51"/><path d="M199,373L234,407L235,373Z" fill="#4b97bc" stroke="#4b97bc" stroke-width="1.51"/><path d="M235,373L234,407L269,373Z" fill="#4193bf" stroke="#4193bf" stroke-width="1.51"/><path d="M269,373L304,407L303,373Z" fill="#2e88bd" stroke="#2e88bd" stroke-width="1.51"/><path d="M409,95L407,62L371,96Z" fill="#7ea5b7" stroke="#7ea5b7" stroke-width="1.51"/><path d="M61,25L27,60L61,61Z" fill="#d3eecc" stroke="#d3eecc" stroke-width="1.51"/><path d="M443,200L408,198L443,233Z" fill="#4c8aad" stroke="#4c8aad" stroke-width="1.51"/><path d="M408,198L443,166L408,166Z" fill="#5c92ae" stroke="#5c92ae" stroke-width="1.51"/><path d="M374,337L408,302L371,303Z" fill="#2781b9" stroke="#2781b9" stroke-width="1.51"/><path d="M304,407L338,373L303,373Z" fill="#2681b9" stroke="#2681b9" stroke-width="1.51"/><path d="M303,373L338,373L338,340Z" fill="#2684ba" stroke="#2684ba" stroke-width="1.51"/><path d="M236,-43L234,-9L269,-42Z" fill="#abd9db" stroke="#abd9db" stroke-width="1.51"/><path d="M234,-9L201,-43L200,-7Z" fill="#b2dfd5" stroke="#b2dfd5" stroke-width="1.51"/><path d="M165,-8L131,-44L130,-7Z" fill="#c7e9cd" stroke="#c7e9cd" stroke-width="1.51"/><path d="M130,-7L94,-9L94,26Z" fill="#cdebcc" stroke="#cdebcc" stroke-width="1.51"/><path d="M234,-9L270,-9L269,-42Z" fill="#a6d6da" stroke="#a6d6da" stroke-width="1.51"/><path d="M164,406L199,373L163,372Z" fill="#609eb7" stroke="#609eb7" stroke-width="1.51"/><path d="M164,406L163,372L130,406Z" fill="#689eb4" stroke="#689eb4" stroke-width="1.51"/><path d="M269,-42L270,-9L302,-43Z" fill="#a4d0db" stroke="#a4d0db" stroke-width="1.51"/><path d="M62,373L95,374L95,338Z" fill="#82afbd" stroke="#82afbd" stroke-width="1.51"/><path d="M408,198L406,235L443,233Z" fill="#488cb3" stroke="#488cb3" stroke-width="1.51"/><path d="M409,95L443,61L407,62Z" fill="#7e9db1" stroke="#7e9db1" stroke-width="1.51"/><path d="M443,233L406,235L441,269Z" fill="#3e84b2" stroke="#3e84b2" stroke-width="1.51"/><path d="M95,-44L94,-9L130,-7Z" fill="#d1edcf" stroke="#d1edcf" stroke-width="1.51"/><path d="M-9,62L27,96L27,60Z" fill="#d4eece" stroke="#d4eece" stroke-width="1.51"/><path d="M130,406L163,372L130,371Z" fill="#6ea2b4" stroke="#6ea2b4" stroke-width="1.51"/><path d="M-43,166L-43,199L-8,199Z" fill="#bae4d4" stroke="#bae4d4" stroke-width="1.51"/><path d="M-9,97L26,131L27,96Z" fill="#caebca" stroke="#caebca" stroke-width="1.51"/><path d="M443,166L441,132L408,166Z" fill="#6492a8" stroke="#6492a8" stroke-width="1.51"/><path d="M302,-43L270,-9L304,-10Z" fill="#9fccd7" stroke="#9fccd7" stroke-width="1.51"/><path d="M441,269L406,235L407,270Z" fill="#3886b6" stroke="#3886b6" stroke-width="1.51"/><path d="M-8,199L-10,235L26,233Z" fill="#abdbd3" stroke="#abdbd3" stroke-width="1.51"/><path d="M-43,199L-10,235L-8,199Z" fill="#b2dfd5" stroke="#b2dfd5" stroke-width="1.51"/><path d="M234,407L270,409L269,373Z" fill="#398dbe" stroke="#398dbe" stroke-width="1.51"/><path d="M236,442L270,409L234,407Z" fill="#3d88b6" stroke="#3d88b6" stroke-width="1.51"/><path d="M201,-43L164,-45L165,-8Z" fill="#bee5d3" stroke="#bee5d3" stroke-width="1.51"/><path d="M236,-43L164,-45L201,-43Z" fill="#b9e3d7" stroke="#b9e3d7" stroke-width="1.51"/><path d="M95,374L130,406L130,371Z" fill="#75a5b5" stroke="#75a5b5" stroke-width="1.51"/><path d="M199,443L234,407L198,408Z" fill="#4d8eb1" stroke="#4d8eb1" stroke-width="1.51"/><path d="M408,302L441,269L407,270Z" fill="#3080b5" stroke="#3080b5" stroke-width="1.51"/><path d="M442,302L441,269L408,302Z" fill="#2c79af" stroke="#2c79af" stroke-width="1.51"/><path d="M270,409L304,407L269,373Z" fill="#2f87bd" stroke="#2f87bd" stroke-width="1.51"/><path d="M-9,62L-9,97L27,96Z" fill="#d3eece" stroke="#d3eece" stroke-width="1.51"/><path d="M-43,166L-8,199L-7,164Z" fill="#bce4d1" stroke="#bce4d1" stroke-width="1.51"/><path d="M25,28L27,60L61,25Z" fill="#d6efd0" stroke="#d6efd0" stroke-width="1.51"/><path d="M236,-43L302,-43L164,-45Z" fill="#b0dcdc" stroke="#b0dcdc" stroke-width="1.51"/><path d="M269,-42L302,-43L236,-43Z" fill="#a8d5de" stroke="#a8d5de" stroke-width="1.51"/><path d="M339,-42L302,-43L304,-10Z" fill="#9dc5d5" stroke="#9dc5d5" stroke-width="1.51"/><path d="M339,-42L304,-10L337,-7Z" fill="#99c0d2" stroke="#99c0d2" stroke-width="1.51"/><path d="M61,339L62,373L95,338Z" fill="#87b4bf" stroke="#87b4bf" stroke-width="1.51"/><path d="M26,302L28,337L61,303Z" fill="#92c1ca" stroke="#92c1ca" stroke-width="1.51"/><path d="M-10,235L-9,270L25,270Z" fill="#a3d4d7" stroke="#a3d4d7" stroke-width="1.51"/><path d="M164,-45L131,-44L165,-8Z" fill="#c5e8d0" stroke="#c5e8d0" stroke-width="1.51"/><path d="M441,132L443,96L408,130Z" fill="#7095a8" stroke="#7095a8" stroke-width="1.51"/><path d="M407,62L406,25L374,26Z" fill="#86a8bf" stroke="#86a8bf" stroke-width="1.51"/><path d="M443,166L443,96L441,132Z" fill="#6b91a2" stroke="#6b91a2" stroke-width="1.51"/><path d="M-9,305L28,337L26,302Z" fill="#95c2ce" stroke="#95c2ce" stroke-width="1.51"/><path d="M95,374L94,407L130,406Z" fill="#77a3b5" stroke="#77a3b5" stroke-width="1.51"/><path d="M25,372L62,373L61,339Z" fill="#89b2c2" stroke="#89b2c2" stroke-width="1.51"/><path d="M60,-9L61,25L94,-9Z" fill="#d6efd0" stroke="#d6efd0" stroke-width="1.51"/><path d="M25,-9L25,28L61,25Z" fill="#daf1d4" stroke="#daf1d4" stroke-width="1.51"/><path d="M374,26L372,-10L337,-7Z" fill="#90b5c9" stroke="#90b5c9" stroke-width="1.51"/><path d="M442,27L406,25L407,62Z" fill="#83a0b7" stroke="#83a0b7" stroke-width="1.51"/><path d="M60,-44L60,-9L94,-9Z" fill="#daf1d4" stroke="#daf1d4" stroke-width="1.51"/><path d="M408,-7L372,-10L374,26Z" fill="#8daec6" stroke="#8daec6" stroke-width="1.51"/><path d="M374,337L409,339L408,302Z" fill="#207ab5" stroke="#207ab5" stroke-width="1.51"/><path d="M338,373L374,374L338,340Z" fill="#217db7" stroke="#217db7" stroke-width="1.51"/><path d="M338,407L374,374L338,373Z" fill="#1c77b4" stroke="#1c77b4" stroke-width="1.51"/><path d="M406,372L409,339L374,337Z" fill="#1974b2" stroke="#1974b2" stroke-width="1.51"/><path d="M441,269L442,302L443,233Z" fill="#327caf" stroke="#327caf" stroke-width="1.51"/><path d="M409,339L442,302L408,302Z" fill="#2476af" stroke="#2476af" stroke-width="1.51"/><path d="M304,442L338,407L304,407Z" fill="#2476af" stroke="#2476af" stroke-width="1.51"/><path d="M304,407L338,407L338,373Z" fill="#1f7bb5" stroke="#1f7bb5" stroke-width="1.51"/><path d="M25,28L-9,62L27,60Z" fill="#d8f0d2" stroke="#d8f0d2" stroke-width="1.51"/><path d="M-43,166L-7,164L-8,132Z" fill="#c3e7ce" stroke="#c3e7ce" stroke-width="1.51"/><path d="M-7,26L-9,62L25,28Z" fill="#dcf1d6" stroke="#dcf1d6" stroke-width="1.51"/><path d="M62,406L94,407L95,374Z" fill="#7ea5b8" stroke="#7ea5b8" stroke-width="1.51"/><path d="M199,443L198,408L165,443Z" fill="#568dab" stroke="#568dab" stroke-width="1.51"/><path d="M199,443L236,442L234,407Z" fill="#4788af" stroke="#4788af" stroke-width="1.51"/><path d="M62,406L95,374L62,373Z" fill="#82a9bb" stroke="#82a9bb" stroke-width="1.51"/><path d="M372,-10L339,-42L337,-7Z" fill="#95b9cf" stroke="#95b9cf" stroke-width="1.51"/><path d="M28,337L25,372L61,339Z" fill="#8cb6c5" stroke="#8cb6c5" stroke-width="1.51"/><path d="M-9,270L-9,305L26,302Z" fill="#9bcad4" stroke="#9bcad4" stroke-width="1.51"/><path d="M-42,305L-9,305L-9,270Z" fill="#9fcbd7" stroke="#9fcbd7" stroke-width="1.51"/><path d="M164,-45L95,-44L131,-44Z" fill="#cfecd0" stroke="#cfecd0" stroke-width="1.51"/><path d="M131,-44L95,-44L130,-7Z" fill="#cfedd0" stroke="#cfedd0" stroke-width="1.51"/><path d="M443,96L443,61L409,95Z" fill="#7999ac" stroke="#7999ac" stroke-width="1.51"/><path d="M406,25L408,-7L374,26Z" fill="#89a9c2" stroke="#89a9c2" stroke-width="1.51"/><path d="M-10,235L-42,268L-9,270Z" fill="#a6d6da" stroke="#a6d6da" stroke-width="1.51"/><path d="M-43,166L-8,132L-42,129Z" fill="#c8eacf" stroke="#c8eacf" stroke-width="1.51"/><path d="M-42,129L-8,132L-9,97Z" fill="#cdebce" stroke="#cdebce" stroke-width="1.51"/><path d="M270,409L304,442L304,407Z" fill="#2b7db3" stroke="#2b7db3" stroke-width="1.51"/><path d="M198,408L164,406L165,443Z" fill="#5c93ae" stroke="#5c93ae" stroke-width="1.51"/><path d="M165,443L164,406L131,443Z" fill="#6492a8" stroke="#6492a8" stroke-width="1.51"/><path d="M-42,96L-42,129L-9,97Z" fill="#d2eed1" stroke="#d2eed1" stroke-width="1.51"/><path d="M236,442L269,442L270,409Z" fill="#3782b3" stroke="#3782b3" stroke-width="1.51"/><path d="M199,443L269,442L236,442Z" fill="#4283ac" stroke="#4283ac" stroke-width="1.51"/><path d="M-43,199L-44,234L-10,235Z" fill="#b1ddd8" stroke="#b1ddd8" stroke-width="1.51"/><path d="M-43,166L-44,234L-43,199Z" fill="#b9e3d7" stroke="#b9e3d7" stroke-width="1.51"/><path d="M131,443L164,406L130,406Z" fill="#6a97ab" stroke="#6a97ab" stroke-width="1.51"/><path d="M408,406L406,372L374,374Z" fill="#0e6aad" stroke="#0e6aad" stroke-width="1.51"/><path d="M374,374L406,372L374,337Z" fill="#1974b2" stroke="#1974b2" stroke-width="1.51"/><path d="M409,339L443,338L442,302Z" fill="#206fa9" stroke="#206fa9" stroke-width="1.51"/><path d="M-10,339L25,372L28,337Z" fill="#90b8c9" stroke="#90b8c9" stroke-width="1.51"/><path d="M372,-10L374,-43L339,-42Z" fill="#96b7cf" stroke="#96b7cf" stroke-width="1.51"/><path d="M442,27L408,-7L406,25Z" fill="#86a2bb" stroke="#86a2bb" stroke-width="1.51"/><path d="M-9,62L-42,96L-9,97Z" fill="#d7efd2" stroke="#d7efd2" stroke-width="1.51"/><path d="M60,-9L25,-9L61,25Z" fill="#daf1d4" stroke="#daf1d4" stroke-width="1.51"/><path d="M27,-43L25,-9L60,-9Z" fill="#e0f3d9" stroke="#e0f3d9" stroke-width="1.51"/><path d="M97,443L131,443L130,406Z" fill="#7095a8" stroke="#7095a8" stroke-width="1.51"/><path d="M25,372L62,406L62,373Z" fill="#86abbf" stroke="#86abbf" stroke-width="1.51"/><path d="M-44,234L-42,268L-10,235Z" fill="#acd9db" stroke="#acd9db" stroke-width="1.51"/><path d="M-9,305L-10,339L28,337Z" fill="#95bfce" stroke="#95bfce" stroke-width="1.51"/><path d="M-43,166L-43,26L-44,234Z" fill="#cbebd1" stroke="#cbebd1" stroke-width="1.51"/><path d="M-42,129L-42,96L-43,166Z" fill="#ceecd0" stroke="#ceecd0" stroke-width="1.51"/><path d="M-42,61L-42,96L-9,62Z" fill="#dcf1d5" stroke="#dcf1d5" stroke-width="1.51"/><path d="M25,-9L-7,26L25,28Z" fill="#ddf2d8" stroke="#ddf2d8" stroke-width="1.51"/><path d="M269,442L304,442L270,409Z" fill="#2f7cb1" stroke="#2f7cb1" stroke-width="1.51"/><path d="M338,407L374,409L374,374Z" fill="#1570b0" stroke="#1570b0" stroke-width="1.51"/><path d="M337,443L304,442L269,442Z" fill="#2772a9" stroke="#2772a9" stroke-width="1.51"/><path d="M443,61L442,27L407,62Z" fill="#809bb1" stroke="#809bb1" stroke-width="1.51"/><path d="M97,443L130,406L94,407Z" fill="#759bad" stroke="#759bad" stroke-width="1.51"/><path d="M441,373L443,338L409,339Z" fill="#1a69a6" stroke="#1a69a6" stroke-width="1.51"/><path d="M442,302L443,338L443,233Z" fill="#2b75ab" stroke="#2b75ab" stroke-width="1.51"/><path d="M407,-42L372,-10L408,-7Z" fill="#8facc8" stroke="#8facc8" stroke-width="1.51"/><path d="M407,-42L374,-43L372,-10Z" fill="#93b0cc" stroke="#93b0cc" stroke-width="1.51"/><path d="M339,-42L374,-43L302,-43Z" fill="#9bbfd3" stroke="#9bbfd3" stroke-width="1.51"/><path d="M302,-43L441,-44L164,-45Z" fill="#a1cad9" stroke="#a1cad9" stroke-width="1.51"/><path d="M-42,337L-10,339L-9,305Z" fill="#99c1d2" stroke="#99c1d2" stroke-width="1.51"/><path d="M95,-44L60,-44L94,-9Z" fill="#d9f0d4" stroke="#d9f0d4" stroke-width="1.51"/><path d="M164,-45L60,-44L95,-44Z" fill="#d5efd3" stroke="#d5efd3" stroke-width="1.51"/><path d="M406,372L441,373L409,339Z" fill="#1669a8" stroke="#1669a8" stroke-width="1.51"/><path d="M337,443L374,409L338,407Z" fill="#1a6caa" stroke="#1a6caa" stroke-width="1.51"/><path d="M-43,26L-42,61L-7,26Z" fill="#e2f4db" stroke="#e2f4db" stroke-width="1.51"/><path d="M-7,26L-42,61L-9,62Z" fill="#def2d7" stroke="#def2d7" stroke-width="1.51"/><path d="M-42,96L-43,26L-43,166Z" fill="#d8f0d4" stroke="#d8f0d4" stroke-width="1.51"/><path d="M-44,234L-42,305L-42,268Z" fill="#a8d5de" stroke="#a8d5de" stroke-width="1.51"/><path d="M-42,268L-42,305L-9,270Z" fill="#a4d0db" stroke="#a4d0db" stroke-width="1.51"/><path d="M60,443L97,443L94,407Z" fill="#7a98ac" stroke="#7a98ac" stroke-width="1.51"/><path d="M60,443L94,407L62,406Z" fill="#7e9eb2" stroke="#7e9eb2" stroke-width="1.51"/><path d="M25,407L62,406L25,372Z" fill="#86a8bf" stroke="#86a8bf" stroke-width="1.51"/><path d="M304,442L337,443L338,407Z" fill="#1f6fa9" stroke="#1f6fa9" stroke-width="1.51"/><path d="M199,443L337,443L269,442Z" fill="#327caf" stroke="#327caf" stroke-width="1.51"/><path d="M374,409L408,406L374,374Z" fill="#0d6aad" stroke="#0d6aad" stroke-width="1.51"/><path d="M407,442L408,406L374,409Z" fill="#0960a3" stroke="#0960a3" stroke-width="1.51"/><path d="M408,406L441,373L406,372Z" fill="#0e63a5" stroke="#0e63a5" stroke-width="1.51"/><path d="M441,-9L407,-42L408,-7Z" fill="#8ca3c0" stroke="#8ca3c0" stroke-width="1.51"/><path d="M60,-44L27,-43L60,-9Z" fill="#e0f3d9" stroke="#e0f3d9" stroke-width="1.51"/><path d="M25,-9L-9,-8L-7,26Z" fill="#e1f3dc" stroke="#e1f3dc" stroke-width="1.51"/><path d="M-10,372L25,372L-10,339Z" fill="#90b5c9" stroke="#90b5c9" stroke-width="1.51"/><path d="M-8,407L25,407L25,372Z" fill="#8aaac3" stroke="#8aaac3" stroke-width="1.51"/><path d="M442,27L441,-9L408,-7Z" fill="#879eb8" stroke="#879eb8" stroke-width="1.51"/><path d="M441,-44L441,-9L442,27Z" fill="#879bb6" stroke="#879bb6" stroke-width="1.51"/><path d="M-8,-44L-9,-8L25,-9Z" fill="#e5f5df" stroke="#e5f5df" stroke-width="1.51"/><path d="M-43,372L-10,372L-10,339Z" fill="#94b7cd" stroke="#94b7cd" stroke-width="1.51"/><path d="M-42,305L-42,337L-9,305Z" fill="#9dc5d5" stroke="#9dc5d5" stroke-width="1.51"/><path d="M-43,372L-42,337L-42,305Z" fill="#9bbfd3" stroke="#9bbfd3" stroke-width="1.51"/><path d="M-9,-8L-43,26L-7,26Z" fill="#e3f4dd" stroke="#e3f4dd" stroke-width="1.51"/><path d="M-42,61L-43,26L-42,96Z" fill="#e0f3d9" stroke="#e0f3d9" stroke-width="1.51"/><path d="M28,442L60,443L62,406Z" fill="#809bb1" stroke="#809bb1" stroke-width="1.51"/><path d="M28,442L62,406L25,407Z" fill="#83a0b7" stroke="#83a0b7" stroke-width="1.51"/><path d="M408,406L441,409L441,373Z" fill="#0a5ca0" stroke="#0a5ca0" stroke-width="1.51"/><path d="M337,443L373,444L374,409Z" fill="#1665a4" stroke="#1665a4" stroke-width="1.51"/><path d="M199,443L373,444L337,443Z" fill="#2872a9" stroke="#2872a9" stroke-width="1.51"/><path d="M165,443L373,444L199,443Z" fill="#3d80ad" stroke="#3d80ad" stroke-width="1.51"/><path d="M131,443L373,444L165,443Z" fill="#4684ab" stroke="#4684ab" stroke-width="1.51"/><path d="M97,443L373,444L131,443Z" fill="#4f88a8" stroke="#4f88a8" stroke-width="1.51"/><path d="M60,443L373,444L97,443Z" fill="#5a8ba6" stroke="#5a8ba6" stroke-width="1.51"/><path d="M-10,372L-8,407L25,372Z" fill="#8daec6" stroke="#8daec6" stroke-width="1.51"/><path d="M-42,408L-8,407L-10,372Z" fill="#8facc8" stroke="#8facc8" stroke-width="1.51"/><path d="M407,442L441,409L408,406Z" fill="#09599c" stroke="#09599c" stroke-width="1.51"/><path d="M441,373L441,409L443,338Z" fill="#125f9f" stroke="#125f9f" stroke-width="1.51"/><path d="M-9,-8L-43,-8L-43,26Z" fill="#e7f6e1" stroke="#e7f6e1" stroke-width="1.51"/><path d="M27,-43L-8,-44L25,-9Z" fill="#e5f5df" stroke="#e5f5df" stroke-width="1.51"/><path d="M60,-44L-8,-44L27,-43Z" fill="#e5f5df" stroke="#e5f5df" stroke-width="1.51"/><path d="M-43,-45L-8,-44L60,-44Z" fill="#eaf7e3" stroke="#eaf7e3" stroke-width="1.51"/><path d="M441,-9L441,-44L407,-42Z" fill="#8da0be" stroke="#8da0be" stroke-width="1.51"/><path d="M407,-42L441,-44L374,-43Z" fill="#91a9c8" stroke="#91a9c8" stroke-width="1.51"/><path d="M374,-43L441,-44L302,-43Z" fill="#96b4cf" stroke="#96b4cf" stroke-width="1.51"/><path d="M443,61L441,-44L442,27Z" fill="#839ab3" stroke="#839ab3" stroke-width="1.51"/><path d="M-10,443L28,442L25,407Z" fill="#859eb7" stroke="#859eb7" stroke-width="1.51"/><path d="M-44,234L-43,372L-42,305Z" fill="#a1cad9" stroke="#a1cad9" stroke-width="1.51"/><path d="M-42,337L-43,372L-10,339Z" fill="#97bad1" stroke="#97bad1" stroke-width="1.51"/><path d="M-8,-44L-43,-8L-9,-8Z" fill="#e9f6e3" stroke="#e9f6e3" stroke-width="1.51"/><path d="M-43,26L-43,-8L-44,234Z" fill="#dbf1d6" stroke="#dbf1d6" stroke-width="1.51"/><path d="M373,444L407,442L374,409Z" fill="#0e5fa1" stroke="#0e5fa1" stroke-width="1.51"/><path d="M373,444L441,441L407,442Z" fill="#095598" stroke="#095598" stroke-width="1.51"/><path d="M407,442L441,441L441,409Z" fill="#0a5294" stroke="#0a5294" stroke-width="1.51"/><path d="M441,409L441,441L443,338Z" fill="#09599c" stroke="#09599c" stroke-width="1.51"/><path d="M-43,372L-42,408L-10,372Z" fill="#93b0cc" stroke="#93b0cc" stroke-width="1.51"/><path d="M-8,407L-10,443L25,407Z" fill="#88a2bd" stroke="#88a2bd" stroke-width="1.51"/><path d="M-8,-44L-43,-45L-43,-8Z" fill="#edf8e7" stroke="#edf8e7" stroke-width="1.51"/><path d="M-43,-8L-43,-45L-44,234Z" fill="#e0f3d9" stroke="#e0f3d9" stroke-width="1.51"/><path d="M164,-45L-43,-45L60,-44Z" fill="#e1f3d9" stroke="#e1f3d9" stroke-width="1.51"/><path d="M28,442L-10,443L60,443Z" fill="#8298b1" stroke="#8298b1" stroke-width="1.51"/><path d="M60,443L-10,443L373,444Z" fill="#678fa2" stroke="#678fa2" stroke-width="1.51"/><path d="M-42,408L-10,443L-8,407Z" fill="#8ca3c0" stroke="#8ca3c0" stroke-width="1.51"/><path d="M-42,408L-43,442L-10,443Z" fill="#8ca0be" stroke="#8ca0be" stroke-width="1.51"/><path d="M-43,372L-43,442L-42,408Z" fill="#92a9c8" stroke="#92a9c8" stroke-width="1.51"/><path d="M-44,234L-43,442L-43,372Z" fill="#99bbd2" stroke="#99bbd2" stroke-width="1.51"/></svg>