<svg xmlns="http://www.w3.org/2000/svg" width="400" height="400"><path d="M242,253L250,177L176,159Z" fill="#77c9c6" stroke="#77c9c6" stroke-width="1.51"/><path d="M176,159L143,228L242,253Z" fill="#7ccbc4" stroke="#7ccbc4" stroke-width="1.51"/><path d="M220,55L141,87L176,159Z" fill="#9ad7bc" stroke="#9ad7bc" stroke-width="1.51"/><path d="M242,253L325,172L250,177Z" fill="#6bc2ca" stroke="#6bc2ca" stroke-width="1.51"/><path d="M143,228L140,326L242,253Z" fill="#74c5c8" stroke="#74c5c8" stroke-width="1.51"/><path d="M143,228L72,245L140,326Z" fill="#85cac3" stroke="#85cac3" stroke-width="1.51"/><path d="M65,178L72,245L143,228Z" fill="#94d3c0" stroke="#94d3c0" stroke-width="1.51"/><path d="M176,159L65,178L143,228Z" fill="#92d4bd" stroke="#92d4bd" stroke-width="1.51"/><path d="M220,55L176,159L250,177Z" fill="#8bd0c0" stroke="#8bd0c0" stroke-width="1.51"/><path d="M141,87L65,178L176,159Z" fill="#9dd8b9" stroke="#9dd8b9" stroke-width="1.51"/><path d="M140,326L255,350L242,253Z" fill="#61b9ca" stroke="#61b9ca" stroke-width="1.51"/><path d="M242,253L359,237L325,172Z" fill="#5fb8cc" stroke="#5fb8cc" stroke-width="1.51"/><path d="M339,80L220,55L250,177Z" fill="#88cbc3" stroke="#88cbc3" stroke-width="1.51"/><path d="M358,351L359,237L242,253Z" fill="#4caecf" stroke="#4caecf" stroke-width="1.51"/><path d="M140,326L181,399L255,350Z" fill="#60b1c3" stroke="#60b1c3" stroke-width="1.51"/><path d="M72,245L66,324L140,326Z" fill="#85c7c5" stroke="#85c7c5" stroke-width="1.51"/><path d="M-41,270L66,324L72,245Z" fill="#95cfcb" stroke="#95cfcb" stroke-width="1.51"/><path d="M141,87L82,78L65,178Z" fill="#aadeb7" stroke="#aadeb7" stroke-width="1.51"/><path d="M173,-13L82,78L141,87Z" fill="#afe0bc" stroke="#afe0bc" stroke-width="1.51"/><path d="M325,172L339,80L250,177Z" fill="#77c1c5" stroke="#77c1c5" stroke-width="1.51"/><path d="M418,158L339,80L325,172Z" fill="#71b5be" stroke="#71b5be" stroke-width="1.51"/><path d="M75,404L181,399L140,326Z" fill="#71b2bd" stroke="#71b2bd" stroke-width="1.51"/><path d="M321,405L358,351L255,350Z" fill="#3c9cc7" stroke="#3c9cc7" stroke-width="1.51"/><path d="M255,350L358,351L242,253Z" fill="#4badcf" stroke="#4badcf" stroke-width="1.51"/><path d="M359,237L418,158L325,172Z" fill="#60afc2" stroke="#60afc2" stroke-width="1.51"/><path d="M444,272L418,158L359,237Z" fill="#52a3c0" stroke="#52a3c0" stroke-width="1.51"/><path d="M261,-32L173,-13L220,55Z" fill="#a5dac8" stroke="#a5dac8" stroke-width="1.51"/><path d="M220,55L173,-13L141,87Z" fill="#a6dcc1" stroke="#a6dcc1" stroke-width="1.51"/><path d="M271,434L321,405L255,350Z" fill="#3f9dc7" stroke="#3f9dc7" stroke-width="1.51"/><path d="M66,324L75,404L140,326Z" fill="#7ebbbf" stroke="#7ebbbf" stroke-width="1.51"/><path d="M181,399L271,434L255,350Z" fill="#4fa3c3" stroke="#4fa3c3" stroke-width="1.51"/><path d="M241,486L271,434L181,399Z" fill="#4d9abe" stroke="#4d9abe" stroke-width="1.51"/><path d="M407,419L411,340L358,351Z" fill="#2c8bbd" stroke="#2c8bbd" stroke-width="1.51"/><path d="M358,351L411,340L359,237Z" fill="#3b9bc7" stroke="#3b9bc7" stroke-width="1.51"/><path d="M411,340L444,272L359,237Z" fill="#3e9bc6" stroke="#3e9bc6" stroke-width="1.51"/><path d="M339,80L261,-32L220,55Z" fill="#97d0ca" stroke="#97d0ca" stroke-width="1.51"/><path d="M345,-45L261,-32L339,80Z" fill="#95cacc" stroke="#95cacc" stroke-width="1.51"/><path d="M65,178L-41,270L72,245Z" fill="#9fd6c6" stroke="#9fd6c6" stroke-width="1.51"/><path d="M66,324L-30,348L75,404Z" fill="#8abdc3" stroke="#8abdc3" stroke-width="1.51"/><path d="M82,78L-16,89L65,178Z" fill="#b5e2bb" stroke="#b5e2bb" stroke-width="1.51"/><path d="M-24,-9L-16,89L82,78Z" fill="#c7e9c3" stroke="#c7e9c3" stroke-width="1.51"/><path d="M-51,176L-41,270L65,178Z" fill="#a8dcc9" stroke="#a8dcc9" stroke-width="1.51"/><path d="M-16,89L-51,176L65,178Z" fill="#b5e2c2" stroke="#b5e2c2" stroke-width="1.51"/><path d="M418,158L424,56L339,80Z" fill="#78b1ba" stroke="#78b1ba" stroke-width="1.51"/><path d="M513,135L424,56L418,158Z" fill="#6fa3b4" stroke="#6fa3b4" stroke-width="1.51"/><path d="M-41,270L-30,348L66,324Z" fill="#95cacd" stroke="#95cacd" stroke-width="1.51"/><path d="M173,-13L87,-41L82,78Z" fill="#bbe4bf" stroke="#bbe4bf" stroke-width="1.51"/><path d="M139,-89L87,-41L173,-13Z" fill="#bde5c7" stroke="#bde5c7" stroke-width="1.51"/><path d="M310,509L407,419L321,405Z" fill="#2a86bc" stroke="#2a86bc" stroke-width="1.51"/><path d="M321,405L407,419L358,351Z" fill="#2e8dbe" stroke="#2e8dbe" stroke-width="1.51"/><path d="M162,506L241,486L181,399Z" fill="#559ab9" stroke="#559ab9" stroke-width="1.51"/><path d="M444,272L486,247L418,158Z" fill="#4d99bc" stroke="#4d99bc" stroke-width="1.51"/><path d="M531,322L486,247L444,272Z" fill="#388aba" stroke="#388aba" stroke-width="1.51"/><path d="M411,340L531,322L444,272Z" fill="#3089be" stroke="#3089be" stroke-width="1.51"/><path d="M310,509L321,405L271,434Z" fill="#348ec0" stroke="#348ec0" stroke-width="1.51"/><path d="M400,-20L345,-45L339,80Z" fill="#8ebfc6" stroke="#8ebfc6" stroke-width="1.51"/><path d="M244,-122L139,-89L173,-13Z" fill="#b4e2cf" stroke="#b4e2cf" stroke-width="1.51"/><path d="M75,404L162,506L181,399Z" fill="#6aa4b8" stroke="#6aa4b8" stroke-width="1.51"/><path d="M61,530L162,506L75,404Z" fill="#719eb0" stroke="#719eb0" stroke-width="1.51"/><path d="M-16,89L-95,161L-51,176Z" fill="#bce5c8" stroke="#bce5c8" stroke-width="1.51"/><path d="M-51,176L-123,223L-41,270Z" fill="#acdcd2" stroke="#acdcd2" stroke-width="1.51"/><path d="M-41,270L-94,315L-30,348Z" fill="#9ccdd4" stroke="#9ccdd4" stroke-width="1.51"/><path d="M-113,82L-95,161L-16,89Z" fill="#c5e9c8" stroke="#c5e9c8" stroke-width="1.51"/><path d="M424,56L400,-20L339,80Z" fill="#85b6c0" stroke="#85b6c0" stroke-width="1.51"/><path d="M506,-44L400,-20L424,56Z" fill="#86adbf" stroke="#86adbf" stroke-width="1.51"/><path d="M244,-122L173,-13L261,-32Z" fill="#aadbd0" stroke="#aadbd0" stroke-width="1.51"/><path d="M-136,416L-10,439L-30,348Z" fill="#91b9ca" stroke="#91b9ca" stroke-width="1.51"/><path d="M-30,348L-10,439L75,404Z" fill="#89b7c2" stroke="#89b7c2" stroke-width="1.51"/><path d="M-123,223L-94,315L-41,270Z" fill="#a6d7d8" stroke="#a6d7d8" stroke-width="1.51"/><path d="M72,-105L-24,-9L87,-41Z" fill="#cfeccc" stroke="#cfeccc" stroke-width="1.51"/><path d="M87,-41L-24,-9L82,78Z" fill="#c8eac4" stroke="#c8eac4" stroke-width="1.51"/><path d="M241,486L310,509L271,434Z" fill="#3b8cbc" stroke="#3b8cbc" stroke-width="1.51"/><path d="M250,592L310,509L241,486Z" fill="#3c81af" stroke="#3c81af" stroke-width="1.51"/><path d="M486,247L513,135L418,158Z" fill="#5999b6" stroke="#5999b6" stroke-width="1.51"/><path d="M-113,82L-123,223L-95,161Z" fill="#c0e6d1" stroke="#c0e6d1" stroke-width="1.51"/><path d="M-95,161L-123,223L-51,176Z" fill="#b6e2d1" stroke="#b6e2d1" stroke-width="1.51"/><path d="M345,-45L314,-99L261,-32Z" fill="#9dced4" stroke="#9dced4" stroke-width="1.51"/><path d="M444,-117L314,-99L345,-45Z" fill="#98c2d1" stroke="#98c2d1" stroke-width="1.51"/><path d="M314,-99L244,-122L261,-32Z" fill="#a5d6d8" stroke="#a5d6d8" stroke-width="1.51"/><path d="M-89,-7L-113,82L-16,89Z" fill="#d0edcd" stroke="#d0edcd" stroke-width="1.51"/><path d="M244,-122L72,-105L139,-89Z" fill="#c0e6d0" stroke="#c0e6d0" stroke-width="1.51"/><path d="M139,-89L72,-105L87,-41Z" fill="#c8eaca" stroke="#c8eaca" stroke-width="1.51"/><path d="M534,408L531,322L411,340Z" fill="#2579b2" stroke="#2579b2" stroke-width="1.51"/><path d="M486,247L615,181L513,135Z" fill="#5388a6" stroke="#5388a6" stroke-width="1.51"/><path d="M534,408L411,340L407,419Z" fill="#1f7bb6" stroke="#1f7bb6" stroke-width="1.51"/><path d="M162,506L250,592L241,486Z" fill="#4b87ab" stroke="#4b87ab" stroke-width="1.51"/><path d="M-10,439L61,530L75,404Z" fill="#7fa7b9" stroke="#7fa7b9" stroke-width="1.51"/><path d="M400,-20L444,-117L345,-45Z" fill="#91bacb" stroke="#91bacb" stroke-width="1.51"/><path d="M513,135L535,65L424,56Z" fill="#729cae" stroke="#729cae" stroke-width="1.51"/><path d="M596,67L535,65L513,135Z" fill="#6d8ea1" stroke="#6d8ea1" stroke-width="1.51"/><path d="M310,509L437,488L407,419Z" fill="#1d78b4" stroke="#1d78b4" stroke-width="1.51"/><path d="M-47,-113L-89,-7L-24,-9Z" fill="#dcf2d6" stroke="#dcf2d6" stroke-width="1.51"/><path d="M-24,-9L-89,-7L-16,89Z" fill="#d3eecc" stroke="#d3eecc" stroke-width="1.51"/><path d="M310,509L418,600L437,488Z" fill="#1d69a4" stroke="#1d69a4" stroke-width="1.51"/><path d="M131,619L250,592L162,506Z" fill="#5484a1" stroke="#5484a1" stroke-width="1.51"/><path d="M437,488L534,408L407,419Z" fill="#1470b0" stroke="#1470b0" stroke-width="1.51"/><path d="M531,322L614,236L486,247Z" fill="#3b7dac" stroke="#3b7dac" stroke-width="1.51"/><path d="M535,65L506,-44L424,56Z" fill="#7fa1b4" stroke="#7fa1b4" stroke-width="1.51"/><path d="M314,-99L444,-117L244,-122Z" fill="#9fcad7" stroke="#9fcad7" stroke-width="1.51"/><path d="M-123,223L-136,416L-94,315Z" fill="#a3ced9" stroke="#a3ced9" stroke-width="1.51"/><path d="M-94,315L-136,416L-30,348Z" fill="#99c3d2" stroke="#99c3d2" stroke-width="1.51"/><path d="M-10,439L-28,533L61,530Z" fill="#809fb3" stroke="#809fb3" stroke-width="1.51"/><path d="M61,530L131,619L162,506Z" fill="#668b9e" stroke="#668b9e" stroke-width="1.51"/><path d="M-89,491L-28,533L-10,439Z" fill="#87a4bd" stroke="#87a4bd" stroke-width="1.51"/><path d="M-136,416L-89,491L-10,439Z" fill="#8eafc7" stroke="#8eafc7" stroke-width="1.51"/><path d="M506,-44L444,-117L400,-20Z" fill="#8caec5" stroke="#8caec5" stroke-width="1.51"/><path d="M72,-105L-47,-113L-24,-9Z" fill="#daf1d3" stroke="#daf1d3" stroke-width="1.51"/><path d="M-105,-126L-47,-113L72,-105Z" fill="#e2f4db" stroke="#e2f4db" stroke-width="1.51"/><path d="M622,337L614,236L531,322Z" fill="#3175a8" stroke="#3175a8" stroke-width="1.51"/><path d="M535,65L610,-18L506,-44Z" fill="#7c93a8" stroke="#7c93a8" stroke-width="1.51"/><path d="M614,236L615,181L486,247Z" fill="#4880a5" stroke="#4880a5" stroke-width="1.51"/><path d="M82,618L131,619L61,530Z" fill="#6c8b9e" stroke="#6c8b9e" stroke-width="1.51"/><path d="M615,181L596,67L513,135Z" fill="#63899e" stroke="#63899e" stroke-width="1.51"/><path d="M-43,585L82,618L61,530Z" fill="#778fa3" stroke="#778fa3" stroke-width="1.51"/><path d="M-43,585L61,530L-28,533Z" fill="#7c93a9" stroke="#7c93a9" stroke-width="1.51"/><path d="M599,400L622,337L531,322Z" fill="#256aa2" stroke="#256aa2" stroke-width="1.51"/><path d="M437,488L503,520L534,408Z" fill="#0962a5" stroke="#0962a5" stroke-width="1.51"/><path d="M418,600L503,520L437,488Z" fill="#0e5c9d" stroke="#0e5c9d" stroke-width="1.51"/><path d="M250,592L324,629L310,509Z" fill="#3176a9" stroke="#3176a9" stroke-width="1.51"/><path d="M131,619L324,629L250,592Z" fill="#447ea5" stroke="#447ea5" stroke-width="1.51"/><path d="M82,618L324,629L131,619Z" fill="#5584a1" stroke="#5584a1" stroke-width="1.51"/><path d="M610,-18L514,-96L506,-44Z" fill="#8297b0" stroke="#8297b0" stroke-width="1.51"/><path d="M506,-44L514,-96L444,-117Z" fill="#8ba6c2" stroke="#8ba6c2" stroke-width="1.51"/><path d="M599,400L531,322L534,408Z" fill="#1e66a1" stroke="#1e66a1" stroke-width="1.51"/><path d="M614,236L622,337L615,181Z" fill="#407ca7" stroke="#407ca7" stroke-width="1.51"/><path d="M578,492L599,400L534,408Z" fill="#145a9a" stroke="#145a9a" stroke-width="1.51"/><path d="M324,629L418,600L310,509Z" fill="#256ba3" stroke="#256ba3" stroke-width="1.51"/><path d="M-122,585L-43,585L-89,491Z" fill="#8496b1" stroke="#8496b1" stroke-width="1.51"/><path d="M-89,491L-43,585L-28,533Z" fill="#8399b2" stroke="#8399b2" stroke-width="1.51"/><path d="M-47,-113L-105,-126L-89,-7Z" fill="#e3f4de" stroke="#e3f4de" stroke-width="1.51"/><path d="M-89,-7L-105,-126L-113,82Z" fill="#dff2d8" stroke="#dff2d8" stroke-width="1.51"/><path d="M-113,82L-105,-126L-123,223Z" fill="#d5efd2" stroke="#d5efd2" stroke-width="1.51"/><path d="M-123,223L-105,-126L-136,416Z" fill="#bee5d3" stroke="#bee5d3" stroke-width="1.51"/><path d="M244,-122L-105,-126L72,-105Z" fill="#d3eed1" stroke="#d3eed1" stroke-width="1.51"/><path d="M596,67L610,-18L535,65Z" fill="#768fa3" stroke="#768fa3" stroke-width="1.51"/><path d="M615,181L610,-18L596,67Z" fill="#6f8c9f" stroke="#6f8c9f" stroke-width="1.51"/><path d="M618,-97L610,-18L615,181Z" fill="#7990a4" stroke="#7990a4" stroke-width="1.51"/><path d="M628,628L578,492L503,520Z" fill="#094283" stroke="#094283" stroke-width="1.51"/><path d="M503,520L578,492L534,408Z" fill="#09579a" stroke="#09579a" stroke-width="1.51"/><path d="M599,400L628,628L622,337Z" fill="#0e5698" stroke="#0e5698" stroke-width="1.51"/><path d="M418,600L491,613L503,520Z" fill="#095396" stroke="#095396" stroke-width="1.51"/><path d="M324,629L491,613L418,600Z" fill="#185f9c" stroke="#185f9c" stroke-width="1.51"/><path d="M-43,585L-122,585L82,618Z" fill="#7e92aa" stroke="#7e92aa" stroke-width="1.51"/><path d="M-136,416L-122,585L-89,491Z" fill="#8ea5c3" stroke="#8ea5c3" stroke-width="1.51"/><path d="M610,-18L618,-97L514,-96Z" fill="#8294ae" stroke="#8294ae" stroke-width="1.51"/><path d="M514,-96L618,-97L444,-117Z" fill="#8a9eba" stroke="#8a9eba" stroke-width="1.51"/><path d="M622,337L618,-97L615,181Z" fill="#60879e" stroke="#60879e" stroke-width="1.51"/><path d="M622,337L628,628L618,-97Z" fill="#3277a9" stroke="#3277a9" stroke-width="1.51"/><path d="M578,492L628,628L599,400Z" fill="#094b8d" stroke="#094b8d" stroke-width="1.51"/><path d="M491,613L628,628L503,520Z" fill="#094485" stroke="#094485" stroke-width="1.51"/><path d="M324,629L628,628L491,613Z" fill="#0a5193" stroke="#0a5193" stroke-width="1.51"/></svg>